<svg width="560" height="519" fill="none" xmlns="http://www.w3.org/2000/svg"><g filter="url(#a)"><rect y="177" width="335" height="280" rx="9.121" fill="url(#b)"/></g><path d="M72.156 286.56v-1.02h2.424V294h-1.152v-7.44h-1.272zm9.673-.156h-4.344v2.832c.2-.272.488-.488.864-.648.376-.16.788-.24 1.236-.24.6 0 1.096.128 1.488.384.4.248.692.58.876.996.192.408.288.864.288 1.368 0 .872-.244 1.584-.732 2.136s-1.204.828-2.148.828c-.848 0-1.54-.228-2.076-.684-.536-.464-.836-1.084-.9-1.86h1.08c.088.496.292.884.612 1.164.328.272.74.408 1.236.408.616 0 1.08-.184 1.392-.552.312-.368.468-.852.468-1.452 0-.584-.16-1.04-.48-1.368-.32-.328-.772-.492-1.356-.492-.416 0-.78.092-1.092.276a1.752 1.752 0 0 0-.708.72h-1.056v-4.788h5.352v.972zm11.98 3.36c0 .856-.172 1.604-.516 2.244a3.575 3.575 0 0 1-1.524 1.476c-.664.344-1.464.516-2.4.516H86.68v-8.46h2.688c.936 0 1.736.172 2.4.516.672.336 1.18.824 1.524 1.464.344.632.516 1.38.516 2.244zm-4.524 3.252c1.104 0 1.948-.284 2.532-.852.584-.568.876-1.368.876-2.4 0-1.032-.292-1.832-.876-2.4-.576-.576-1.42-.864-2.532-.864h-1.512v6.516h1.512zm8.697-5.688c.64 0 1.18.16 1.62.48.448.32.76.748.936 1.284v-1.68h1.092V294h-1.092v-1.68a2.491 2.491 0 0 1-.936 1.284c-.44.32-.98.48-1.62.48a2.986 2.986 0 0 1-1.56-.408 2.87 2.87 0 0 1-1.08-1.164c-.256-.512-.384-1.112-.384-1.8s.128-1.288.384-1.8a2.853 2.853 0 0 1 1.08-1.176 2.986 2.986 0 0 1 1.56-.408zm.312.972c-.672 0-1.212.216-1.62.648-.4.424-.6 1.012-.6 1.764s.2 1.344.6 1.776c.408.424.948.636 1.62.636.432 0 .816-.1 1.152-.3.344-.2.612-.48.804-.84.192-.368.288-.792.288-1.272s-.096-.904-.288-1.272a1.99 1.99 0 0 0-.804-.84c-.336-.2-.72-.3-1.152-.3zm5.53-.888 2.136 5.184 1.98-5.184h1.212l-3.912 9.708h-1.236l1.368-3.228-2.772-6.48h1.224zm8.393-.084c.744 0 1.34.196 1.788.588.456.384.732.904.828 1.56h-1.044a1.476 1.476 0 0 0-.492-.96c-.272-.256-.64-.384-1.104-.384-.392 0-.7.096-.924.288-.216.184-.324.436-.324.756 0 .24.072.436.216.588.152.144.336.256.552.336.224.072.528.152.912.24.488.112.88.228 1.176.348.304.112.56.296.768.552.216.256.324.6.324 1.032 0 .536-.204.972-.612 1.308-.4.336-.936.504-1.608.504-.784 0-1.424-.188-1.92-.564-.496-.376-.788-.9-.876-1.572h1.056c.04.4.212.724.516.972.312.248.72.372 1.224.372.376 0 .668-.096.876-.288a.963.963 0 0 0 .324-.756c0-.256-.076-.46-.228-.612a1.495 1.495 0 0 0-.564-.348 8.249 8.249 0 0 0-.924-.252 9.342 9.342 0 0 1-1.176-.336 1.87 1.87 0 0 1-.744-.528c-.2-.248-.3-.58-.3-.996 0-.552.204-.996.612-1.332.408-.344.964-.516 1.668-.516zm9.8 0c.64 0 1.18.16 1.62.48.448.32.76.748.936 1.284v-1.68h1.092V294h-1.092v-1.68a2.49 2.49 0 0 1-.936 1.284c-.44.32-.98.48-1.62.48a2.986 2.986 0 0 1-1.56-.408 2.87 2.87 0 0 1-1.08-1.164c-.256-.512-.384-1.112-.384-1.8s.128-1.288.384-1.8a2.853 2.853 0 0 1 1.08-1.176 2.986 2.986 0 0 1 1.56-.408zm.312.972c-.672 0-1.212.216-1.62.648-.4.424-.6 1.012-.6 1.764s.2 1.344.6 1.776c.408.424.948.636 1.62.636.432 0 .816-.1 1.152-.3.344-.2.612-.48.804-.84.192-.368.288-.792.288-1.272s-.096-.904-.288-1.272a1.99 1.99 0 0 0-.804-.84c-.336-.2-.72-.3-1.152-.3zm7.774-.972c.64 0 1.18.16 1.62.48.448.32.76.748.936 1.284v-1.68h1.092v6.696c0 .608-.128 1.148-.384 1.62-.256.472-.616.84-1.08 1.104-.464.264-1.004.396-1.62.396-.888 0-1.612-.216-2.172-.648-.56-.424-.916-1-1.068-1.728h1.08c.128.44.368.784.72 1.032.36.256.82.384 1.38.384.592 0 1.08-.192 1.464-.576.392-.376.588-.904.588-1.584v-1.788a2.49 2.49 0 0 1-.936 1.284c-.44.32-.98.48-1.62.48a2.986 2.986 0 0 1-1.56-.408 2.87 2.87 0 0 1-1.08-1.164c-.256-.512-.384-1.112-.384-1.8s.128-1.288.384-1.8a2.853 2.853 0 0 1 1.08-1.176 2.986 2.986 0 0 1 1.56-.408zm.312.972c-.672 0-1.212.216-1.62.648-.4.424-.6 1.012-.6 1.764s.2 1.344.6 1.776c.408.424.948.636 1.62.636.432 0 .816-.1 1.152-.3.344-.2.612-.48.804-.84.192-.368.288-.792.288-1.272s-.096-.904-.288-1.272a1.99 1.99 0 0 0-.804-.84c-.336-.2-.72-.3-1.152-.3zm8.062-.972c.632 0 1.196.136 1.692.408.504.272.896.664 1.176 1.176.288.512.432 1.112.432 1.8s-.144 1.288-.432 1.8a2.89 2.89 0 0 1-1.176 1.164c-.496.272-1.06.408-1.692.408a3.53 3.53 0 0 1-1.704-.408 2.99 2.99 0 0 1-1.176-1.164c-.288-.512-.432-1.112-.432-1.8s.144-1.288.432-1.8a2.97 2.97 0 0 1 1.176-1.176 3.53 3.53 0 0 1 1.704-.408zm0 .96c-.392 0-.756.088-1.092.264a2.025 2.025 0 0 0-.804.816c-.2.36-.3.808-.3 1.344 0 .528.1.976.3 1.344.208.36.476.628.804.804.336.176.7.264 1.092.264.392 0 .752-.088 1.08-.264.336-.176.604-.444.804-.804.208-.368.312-.816.312-1.344 0-.536-.104-.984-.312-1.344a1.93 1.93 0 0 0-.804-.816 2.248 2.248 0 0 0-1.08-.264zM76.92 358H78v-1.932h1.2v-.948H78v-5.712h-1.308l-4.212 5.832v.828h4.44V358zm-3.18-2.88 3.228-4.572v4.572H73.74zm12.534-5.484H83.67V358h2.604c2.748 0 4.44-1.572 4.44-4.164 0-2.592-1.692-4.2-4.44-4.2zm-1.512 7.464v-6.576h1.512c2.184 0 3.324 1.272 3.324 3.312s-1.14 3.264-3.324 3.264h-1.512zm6.984-2.412c0 2.04 1.357 3.42 3.109 3.42 1.212 0 2.063-.624 2.46-1.332V358h1.103v-6.576h-1.104v1.2c-.383-.684-1.223-1.308-2.447-1.308-1.764 0-3.12 1.32-3.12 3.372zm5.569.012c0 1.548-1.032 2.448-2.233 2.448-1.2 0-2.22-.912-2.22-2.46s1.02-2.424 2.22-2.424c1.2 0 2.233.912 2.233 2.436zm5.445 2.052-2.064-5.328h-1.212l2.652 6.504-1.296 3.168h1.128l3.96-9.672H104.8l-2.04 5.328zm8.994-.54c-.048-2.352-3.864-1.5-3.864-3.06 0-.528.48-.912 1.284-.912.876 0 1.38.48 1.428 1.14h1.092c-.072-1.284-1.032-2.064-2.484-2.064-1.464 0-2.412.828-2.412 1.836 0 2.448 3.888 1.596 3.888 3.06 0 .54-.48.972-1.344.972-.924 0-1.488-.48-1.548-1.116h-1.128c.072 1.2 1.152 2.04 2.688 2.04 1.452 0 2.4-.816 2.4-1.896zm4.332-1.524c0 2.04 1.356 3.42 3.108 3.42 1.212 0 2.064-.624 2.46-1.332V358h1.104v-6.576h-1.104v1.2c-.384-.684-1.224-1.308-2.448-1.308-1.764 0-3.12 1.32-3.12 3.372zm5.568.012c0 1.548-1.032 2.448-2.232 2.448-1.2 0-2.22-.912-2.22-2.46s1.02-2.424 2.22-2.424c1.2 0 2.232.912 2.232 2.436zm2.542-.012c0 2.04 1.356 3.42 3.12 3.42 1.2 0 2.052-.636 2.448-1.344v1.38c0 1.404-.876 2.148-2.04 2.148-1.08 0-1.86-.54-2.1-1.332h-1.08c.216 1.404 1.452 2.28 3.18 2.28 1.932 0 3.144-1.284 3.144-3.096v-6.72h-1.104v1.2c-.384-.708-1.248-1.308-2.448-1.308-1.764 0-3.12 1.32-3.12 3.372zm5.568.012c0 1.548-1.032 2.448-2.232 2.448-1.2 0-2.22-.912-2.22-2.46s1.02-2.424 2.22-2.424c1.2 0 2.232.912 2.232 2.436zm9.189 0c0-2.076-1.452-3.384-3.324-3.384-1.86 0-3.324 1.308-3.324 3.384 0 2.088 1.416 3.408 3.276 3.408 1.872 0 3.372-1.32 3.372-3.408zm-5.532 0c0-1.656 1.044-2.436 2.196-2.436 1.128 0 2.22.78 2.22 2.436 0 1.668-1.116 2.448-2.256 2.448-1.14 0-2.16-.78-2.16-2.448zM76.92 422H78v-1.932h1.2v-.948H78v-5.712h-1.308l-4.212 5.832v.828h4.44V422zm-3.18-2.88 3.228-4.572v4.572H73.74zm12.534-5.484H83.67V422h2.604c2.748 0 4.44-1.572 4.44-4.164 0-2.592-1.692-4.2-4.44-4.2zm-1.512 7.464v-6.576h1.512c2.184 0 3.324 1.272 3.324 3.312s-1.14 3.264-3.324 3.264h-1.512zm6.984-2.412c0 2.04 1.357 3.42 3.109 3.42 1.212 0 2.063-.624 2.46-1.332V422h1.103v-6.576h-1.104v1.2c-.383-.684-1.223-1.308-2.447-1.308-1.764 0-3.12 1.32-3.12 3.372zm5.569.012c0 1.548-1.032 2.448-2.233 2.448-1.2 0-2.22-.912-2.22-2.46s1.02-2.424 2.22-2.424c1.2 0 2.233.912 2.233 2.436zm5.445 2.052-2.064-5.328h-1.212l2.652 6.504-1.296 3.168h1.128l3.96-9.672H104.8l-2.04 5.328zm8.994-.54c-.048-2.352-3.864-1.5-3.864-3.06 0-.528.48-.912 1.284-.912.876 0 1.38.48 1.428 1.14h1.092c-.072-1.284-1.032-2.064-2.484-2.064-1.464 0-2.412.828-2.412 1.836 0 2.448 3.888 1.596 3.888 3.06 0 .54-.48.972-1.344.972-.924 0-1.488-.48-1.548-1.116h-1.128c.072 1.2 1.152 2.04 2.688 2.04 1.452 0 2.4-.816 2.4-1.896zm4.332-1.524c0 2.04 1.356 3.42 3.108 3.42 1.212 0 2.064-.624 2.46-1.332V422h1.104v-6.576h-1.104v1.2c-.384-.684-1.224-1.308-2.448-1.308-1.764 0-3.12 1.32-3.12 3.372zm5.568.012c0 1.548-1.032 2.448-2.232 2.448-1.2 0-2.22-.912-2.22-2.46s1.02-2.424 2.22-2.424c1.2 0 2.232.912 2.232 2.436zm2.542-.012c0 2.04 1.356 3.42 3.12 3.42 1.2 0 2.052-.636 2.448-1.344v1.38c0 1.404-.876 2.148-2.04 2.148-1.08 0-1.86-.54-2.1-1.332h-1.08c.216 1.404 1.452 2.28 3.18 2.28 1.932 0 3.144-1.284 3.144-3.096v-6.72h-1.104v1.2c-.384-.708-1.248-1.308-2.448-1.308-1.764 0-3.12 1.32-3.12 3.372zm5.568.012c0 1.548-1.032 2.448-2.232 2.448-1.2 0-2.22-.912-2.22-2.46s1.02-2.424 2.22-2.424c1.2 0 2.232.912 2.232 2.436zm9.189 0c0-2.076-1.452-3.384-3.324-3.384-1.86 0-3.324 1.308-3.324 3.384 0 2.088 1.416 3.408 3.276 3.408 1.872 0 3.372-1.32 3.372-3.408zm-5.532 0c0-1.656 1.044-2.436 2.196-2.436 1.128 0 2.22.78 2.22 2.436 0 1.668-1.116 2.448-2.256 2.448-1.14 0-2.16-.78-2.16-2.448z" fill="#fff" fill-opacity=".7"/><path d="M253.812 279.408h5.586v-1.078h-5.586v1.078zm10.637 5.81h.756v-1.134c1.904-.126 2.884-1.456 2.884-2.758 0-1.946-1.498-2.352-2.884-2.702v-3.416c.854.182 1.316.812 1.4 1.414h1.358c-.14-1.414-1.162-2.352-2.758-2.492v-1.162h-.756v1.162c-1.75.112-2.898 1.19-2.898 2.702 0 1.932 1.498 2.338 2.898 2.702v3.5c-.994-.154-1.456-.84-1.526-1.568h-1.358c.028 1.484 1.204 2.464 2.884 2.618v1.134zm2.366-3.822c0 .84-.574 1.54-1.61 1.652v-3.304c.896.266 1.61.658 1.61 1.652zm-3.962-4.634c0-.994.658-1.498 1.596-1.582v3.234c-.896-.28-1.596-.658-1.596-1.652zm7.281 7.126h6.734v-1.064h-4.816c1.806-1.47 4.522-3.612 4.522-6.132 0-1.876-1.232-2.996-3.136-2.996-1.82 0-3.178 1.12-3.262 3.276h1.232c.056-1.274.728-2.184 2.044-2.184 1.372 0 1.862.84 1.862 1.96 0 2.072-2.52 4.088-5.18 6.23v.91zm8.571-10.024v5.712h1.204c.336-.798 1.078-1.33 2.1-1.33 1.47 0 2.212.84 2.212 2.282 0 1.386-.686 2.422-2.226 2.422-1.19 0-2.016-.63-2.254-1.694h-1.246c.252 1.638 1.47 2.772 3.486 2.772 2.366 0 3.458-1.568 3.458-3.528 0-1.568-.784-3.346-3.248-3.346-.994 0-1.89.448-2.31 1.022v-3.192h4.914v-1.12h-6.09zm8.427 4.97c0 2.94.728 5.166 3.528 5.166 2.786 0 3.514-2.226 3.514-5.166 0-2.898-.728-5.11-3.514-5.11-2.8 0-3.528 2.212-3.528 5.11zm5.782 0c0 2.184-.266 4.004-2.254 4.004-2.002 0-2.268-1.82-2.268-4.004 0-2.1.266-3.948 2.268-3.948 1.988 0 2.254 1.848 2.254 3.948zm2.113 7.168h.854l1.568-3.766h-1.4l-1.022 3.766zm4.133-4.718c.14 1.484 1.12 2.73 3.136 2.73 2.66 0 3.43-1.89 3.43-5.264 0-3.136-.798-5.068-3.542-5.068-2.184 0-3.332 1.4-3.332 3.332 0 2.142 1.386 3.304 3.248 3.304 1.092 0 2.1-.49 2.506-1.344.042 2.968-.756 3.976-2.24 3.976-1.176 0-1.848-.616-2.03-1.666h-1.176zm3.15-2.044c-1.512 0-2.24-.952-2.24-2.254 0-1.344.826-2.24 2.142-2.24 1.456 0 2.24.966 2.24 2.338 0 1.358-.924 2.156-2.142 2.156zm5.178-2.814h1.246c.126-.98.84-1.652 2.03-1.652 1.218 0 1.862.672 1.862 1.638 0 1.176-.91 1.694-2.604 1.708h-.336v1.064h.322c1.82 0 2.814.546 2.814 1.974 0 1.036-.644 1.834-2.002 1.834-1.344 0-2.128-.826-2.254-1.904h-1.232c.154 1.96 1.582 2.982 3.5 2.982 2.114 0 3.206-1.232 3.206-2.8 0-1.456-.798-2.324-1.974-2.604v-.07c1.064-.238 1.792-1.148 1.792-2.31 0-1.456-1.078-2.604-3.052-2.604-1.876 0-3.192 1.008-3.318 2.744zM253.812 343.408h5.586v-1.078h-5.586v1.078zm10.637 5.81h.756v-1.134c1.904-.126 2.884-1.456 2.884-2.758 0-1.946-1.498-2.352-2.884-2.702v-3.416c.854.182 1.316.812 1.4 1.414h1.358c-.14-1.414-1.162-2.352-2.758-2.492v-1.162h-.756v1.162c-1.75.112-2.898 1.19-2.898 2.702 0 1.932 1.498 2.338 2.898 2.702v3.5c-.994-.154-1.456-.84-1.526-1.568h-1.358c.028 1.484 1.204 2.464 2.884 2.618v1.134zm2.366-3.822c0 .84-.574 1.54-1.61 1.652v-3.304c.896.266 1.61.658 1.61 1.652zm-3.962-4.634c0-.994.658-1.498 1.596-1.582v3.234c-.896-.28-1.596-.658-1.596-1.652zm7.281 7.126h6.734v-1.064h-4.816c1.806-1.47 4.522-3.612 4.522-6.132 0-1.876-1.232-2.996-3.136-2.996-1.82 0-3.178 1.12-3.262 3.276h1.232c.056-1.274.728-2.184 2.044-2.184 1.372 0 1.862.84 1.862 1.96 0 2.072-2.52 4.088-5.18 6.23v.91zm8.571-10.024v5.712h1.204c.336-.798 1.078-1.33 2.1-1.33 1.47 0 2.212.84 2.212 2.282 0 1.386-.686 2.422-2.226 2.422-1.19 0-2.016-.63-2.254-1.694h-1.246c.252 1.638 1.47 2.772 3.486 2.772 2.366 0 3.458-1.568 3.458-3.528 0-1.568-.784-3.346-3.248-3.346-.994 0-1.89.448-2.31 1.022v-3.192h4.914v-1.12h-6.09zm8.427 4.97c0 2.94.728 5.166 3.528 5.166 2.786 0 3.514-2.226 3.514-5.166 0-2.898-.728-5.11-3.514-5.11-2.8 0-3.528 2.212-3.528 5.11zm5.782 0c0 2.184-.266 4.004-2.254 4.004-2.002 0-2.268-1.82-2.268-4.004 0-2.1.266-3.948 2.268-3.948 1.988 0 2.254 1.848 2.254 3.948zm2.113 7.168h.854l1.568-3.766h-1.4l-1.022 3.766zm4.133-4.718c.14 1.484 1.12 2.73 3.136 2.73 2.66 0 3.43-1.89 3.43-5.264 0-3.136-.798-5.068-3.542-5.068-2.184 0-3.332 1.4-3.332 3.332 0 2.142 1.386 3.304 3.248 3.304 1.092 0 2.1-.49 2.506-1.344.042 2.968-.756 3.976-2.24 3.976-1.176 0-1.848-.616-2.03-1.666h-1.176zm3.15-2.044c-1.512 0-2.24-.952-2.24-2.254 0-1.344.826-2.24 2.142-2.24 1.456 0 2.24.966 2.24 2.338 0 1.358-.924 2.156-2.142 2.156zm5.178-2.814h1.246c.126-.98.84-1.652 2.03-1.652 1.218 0 1.862.672 1.862 1.638 0 1.176-.91 1.694-2.604 1.708h-.336v1.064h.322c1.82 0 2.814.546 2.814 1.974 0 1.036-.644 1.834-2.002 1.834-1.344 0-2.128-.826-2.254-1.904h-1.232c.154 1.96 1.582 2.982 3.5 2.982 2.114 0 3.206-1.232 3.206-2.8 0-1.456-.798-2.324-1.974-2.604v-.07c1.064-.238 1.792-1.148 1.792-2.31 0-1.456-1.078-2.604-3.052-2.604-1.876 0-3.192 1.008-3.318 2.744zM258.39 406.33v1.078h-5.6v-1.078h5.6zm5.757.14c.728.224 1.293.425 1.694.602s.751.457 1.05.84c.299.373.448.882.448 1.526 0 .467-.117.901-.35 1.302-.224.401-.574.728-1.05.98-.476.252-1.059.378-1.75.378h-.042v1.12h-.434v-1.148c-.887-.084-1.61-.373-2.17-.868a2.752 2.752 0 0 1-.938-1.862h1.358c.037.392.205.761.504 1.106.308.336.723.546 1.246.63v-3.584a17.7 17.7 0 0 1-1.68-.574 2.808 2.808 0 0 1-1.036-.826c-.289-.373-.434-.873-.434-1.498 0-.513.131-.966.392-1.358.261-.392.63-.695 1.106-.91.476-.215 1.027-.322 1.652-.322V400.8h.434v1.218c.868.065 1.559.331 2.072.798a2.75 2.75 0 0 1 .91 1.694h-1.372a1.821 1.821 0 0 0-.504-.952c-.271-.28-.639-.457-1.106-.532v3.444zm-2.212-1.932c0 .476.149.845.448 1.106.308.261.751.49 1.33.686v-3.332c-.541 0-.975.135-1.302.406-.317.261-.476.639-.476 1.134zm2.226 6.566c.579 0 1.027-.154 1.344-.462.317-.308.476-.7.476-1.176 0-.495-.159-.877-.476-1.148-.317-.271-.77-.499-1.358-.686v3.472h.014zm4.452-.084c1.587-1.064 2.856-2.119 3.808-3.164.952-1.055 1.428-2.035 1.428-2.94 0-.56-.144-1.008-.434-1.344-.28-.345-.737-.518-1.372-.518-.653 0-1.148.21-1.484.63-.336.411-.522.98-.56 1.708h-1.26c.066-1.101.406-1.946 1.022-2.534.616-.597 1.41-.896 2.38-.896.924 0 1.657.247 2.198.742.542.495.812 1.195.812 2.1 0 .747-.242 1.507-.728 2.282a10.17 10.17 0 0 1-1.806 2.142 13.907 13.907 0 0 1-2.226 1.666h5.012v1.05h-6.79v-.924zm14.804-7.882h-5.068v3.304c.233-.317.569-.569 1.008-.756.438-.187.919-.28 1.442-.28.7 0 1.278.149 1.736.448a2.57 2.57 0 0 1 1.022 1.162c.224.476.336 1.008.336 1.596 0 1.017-.285 1.848-.854 2.492-.57.644-1.405.966-2.506.966-.99 0-1.797-.266-2.422-.798-.626-.541-.976-1.265-1.05-2.17h1.26c.102.579.34 1.031.714 1.358.382.317.863.476 1.442.476.718 0 1.26-.215 1.624-.644.364-.429.546-.994.546-1.694 0-.681-.187-1.213-.56-1.596-.374-.383-.901-.574-1.582-.574-.486 0-.91.107-1.274.322-.364.205-.64.485-.826.84h-1.232v-5.586h6.244v1.134zm1.977 3.864c0 1.587.261 2.823.784 3.71.522.887 1.428 1.33 2.716 1.33 1.288 0 2.193-.443 2.716-1.33.532-.887.798-2.123.798-3.71 0-1.568-.266-2.795-.798-3.682-.523-.887-1.428-1.33-2.716-1.33-1.288 0-2.194.443-2.716 1.33-.523.877-.784 2.105-.784 3.682zm5.754 0c0 .812-.061 1.493-.182 2.044-.112.541-.332.975-.658 1.302-.327.327-.798.49-1.414.49-.607 0-1.074-.163-1.4-.49-.327-.327-.551-.761-.672-1.302-.112-.551-.168-1.232-.168-2.044 0-.803.056-1.475.168-2.016.121-.541.345-.971.672-1.288.326-.327.793-.49 1.4-.49.616 0 1.087.163 1.414.49.326.317.546.747.658 1.288.121.541.182 1.213.182 2.016zm3.811 4.06c.131.411.196.793.196 1.148 0 .485-.121.873-.364 1.162-.242.299-.606.448-1.092.448v-.546c.234 0 .402-.065.504-.196.112-.121.168-.317.168-.588v-.126h-.714v-1.302h1.302zm2.924-1.834c.084.588.289 1.041.616 1.358.326.317.774.476 1.344.476.784 0 1.376-.303 1.778-.91.401-.607.602-1.568.602-2.884 0-.252-.005-.443-.014-.574-.131.56-.448 1.008-.952 1.344-.504.336-1.097.504-1.778.504-.98 0-1.75-.294-2.31-.882-.56-.588-.84-1.409-.84-2.464 0-.616.121-1.176.364-1.68a2.715 2.715 0 0 1 1.106-1.19c.504-.299 1.124-.448 1.862-.448 1.418 0 2.389.439 2.912 1.316.532.868.798 2.063.798 3.584 0 1.736-.271 3.061-.812 3.976-.542.905-1.447 1.358-2.716 1.358-.943 0-1.685-.266-2.226-.798-.532-.541-.845-1.237-.938-2.086h1.204zm4.2-3.836c0-.672-.201-1.241-.602-1.708-.392-.467-.985-.7-1.778-.7-.654 0-1.176.196-1.568.588-.392.392-.588.938-.588 1.638 0 .747.196 1.321.588 1.722.392.401.928.602 1.61.602.392 0 .765-.079 1.12-.238.364-.159.658-.401.882-.728.224-.327.336-.719.336-1.176zm6.263-3.528c.635 0 1.181.112 1.638.336.457.224.803.532 1.036.924.233.392.35.835.35 1.33 0 .616-.182 1.134-.546 1.554-.355.42-.877.672-1.568.756v.084c.719.187 1.279.476 1.68.868.411.392.616.933.616 1.624 0 .812-.271 1.475-.812 1.988-.541.513-1.321.77-2.338.77-1.017 0-1.843-.261-2.478-.784-.625-.532-.994-1.307-1.106-2.324h1.26c.084.616.317 1.106.7 1.47.392.364.919.546 1.582.546.625 0 1.106-.159 1.442-.476.336-.327.504-.747.504-1.26 0-.616-.243-1.083-.728-1.4-.476-.327-1.157-.49-2.044-.49h-.336v-1.064h.336c1.717 0 2.576-.574 2.576-1.722 0-.504-.159-.905-.476-1.204-.317-.299-.756-.448-1.316-.448s-1.031.163-1.414.49c-.383.317-.607.789-.672 1.414h-1.246c.065-.933.387-1.661.966-2.184.588-.532 1.386-.798 2.394-.798zM24.51 219.624h5.214V222h-8.316v-15.532h3.102v13.156zm11.834-9.966c1.027 0 1.907.242 2.64.726a3.956 3.956 0 0 1 1.562 1.958v-2.53h3.08V222h-3.08v-2.552a4.075 4.075 0 0 1-1.562 1.98c-.733.484-1.613.726-2.64.726-1.027 0-1.95-.249-2.772-.748-.821-.499-1.467-1.217-1.936-2.156-.455-.953-.682-2.068-.682-3.344 0-1.276.227-2.383.682-3.322.47-.953 1.115-1.679 1.936-2.178.821-.499 1.745-.748 2.772-.748zm.968 2.706c-.968 0-1.745.315-2.332.946-.587.631-.88 1.496-.88 2.596s.293 1.965.88 2.596c.587.616 1.364.924 2.332.924.939 0 1.709-.315 2.31-.946.616-.645.924-1.503.924-2.574 0-1.085-.308-1.943-.924-2.574-.601-.645-1.371-.968-2.31-.968zm13.327-2.706c1.482 0 2.67.374 3.564 1.122.895.748 1.452 1.745 1.672 2.992h-2.904c-.117-.587-.381-1.056-.792-1.408-.41-.352-.946-.528-1.606-.528-.528 0-.938.125-1.232.374-.293.249-.44.587-.44 1.012 0 .337.118.609.352.814.235.205.528.367.88.484.352.117.858.257 1.518.418.924.205 1.672.425 2.244.66.587.22 1.086.579 1.496 1.078.426.484.638 1.144.638 1.98 0 1.041-.41 1.885-1.232 2.53-.806.645-1.899.968-3.278.968-1.584 0-2.852-.352-3.806-1.056-.953-.719-1.532-1.738-1.738-3.058h2.97c.074.601.338 1.078.792 1.43.455.337 1.049.506 1.782.506.528 0 .932-.125 1.21-.374.279-.264.418-.601.418-1.012a1.09 1.09 0 0 0-.374-.858 2.333 2.333 0 0 0-.902-.506 20.555 20.555 0 0 0-1.518-.418c-.909-.205-1.65-.411-2.222-.616a3.733 3.733 0 0 1-1.452-1.034c-.396-.469-.594-1.115-.594-1.936 0-1.056.404-1.914 1.21-2.574.807-.66 1.922-.99 3.344-.99zm14.213 9.68V222h-1.628c-1.364 0-2.413-.33-3.146-.99-.719-.66-1.078-1.76-1.078-3.3v-5.28h-1.694v-2.618H59v-3.014h3.102v3.014h2.728v2.618h-2.728v5.324c0 .587.117.997.352 1.232.234.235.63.352 1.188.352h1.21zm17.583-12.87v2.464h-4.29V222h-3.102v-13.068h-4.268v-2.464h11.66zm4.81 5.676a5.012 5.012 0 0 1 1.803-1.826c.748-.455 1.584-.682 2.508-.682v3.322h-.902c-2.273 0-3.41 1.056-3.41 3.168V222h-3.102v-12.188h3.102v2.332zm10.802-2.486c1.027 0 1.907.242 2.64.726a3.952 3.952 0 0 1 1.562 1.958v-2.53h3.08V222h-3.08v-2.552a4.071 4.071 0 0 1-1.562 1.98c-.733.484-1.613.726-2.64.726-1.026 0-1.95-.249-2.772-.748-.821-.499-1.466-1.217-1.936-2.156-.454-.953-.682-2.068-.682-3.344 0-1.276.228-2.383.682-3.322.47-.953 1.115-1.679 1.936-2.178.822-.499 1.746-.748 2.772-.748zm.968 2.706c-.968 0-1.745.315-2.332.946-.586.631-.88 1.496-.88 2.596s.294 1.965.88 2.596c.587.616 1.364.924 2.332.924.939 0 1.709-.315 2.31-.946.616-.645.924-1.503.924-2.574 0-1.085-.308-1.943-.924-2.574-.601-.645-1.371-.968-2.31-.968zm16.385-2.728c1.408 0 2.53.462 3.366 1.386.836.924 1.254 2.222 1.254 3.894V222h-3.08v-6.732c0-.968-.249-1.716-.748-2.244-.498-.543-1.18-.814-2.046-.814-.88 0-1.584.286-2.112.858-.528.572-.792 1.393-.792 2.464V222h-3.102v-12.188h3.102v2.442a3.85 3.85 0 0 1 1.584-1.914c.748-.469 1.606-.704 2.574-.704zm11.552.022c1.481 0 2.669.374 3.564 1.122.894.748 1.452 1.745 1.672 2.992h-2.904c-.118-.587-.382-1.056-.792-1.408-.411-.352-.946-.528-1.606-.528-.528 0-.939.125-1.232.374-.294.249-.44.587-.44 1.012 0 .337.117.609.352.814.234.205.528.367.88.484.352.117.858.257 1.518.418.924.205 1.672.425 2.244.66a3.51 3.51 0 0 1 1.496 1.078c.425.484.638 1.144.638 1.98 0 1.041-.411 1.885-1.232 2.53-.807.645-1.9.968-3.278.968-1.584 0-2.853-.352-3.806-1.056-.954-.719-1.533-1.738-1.738-3.058h2.97c.073.601.337 1.078.792 1.43.454.337 1.048.506 1.782.506.528 0 .931-.125 1.21-.374.278-.264.418-.601.418-1.012 0-.352-.125-.638-.374-.858a2.34 2.34 0 0 0-.902-.506 20.555 20.555 0 0 0-1.518-.418c-.91-.205-1.65-.411-2.222-.616a3.723 3.723 0 0 1-1.452-1.034c-.396-.469-.594-1.115-.594-1.936 0-1.056.403-1.914 1.21-2.574.806-.66 1.921-.99 3.344-.99zm12.474 0c1.027 0 1.907.242 2.64.726a3.957 3.957 0 0 1 1.562 1.958v-2.53h3.08V222h-3.08v-2.552a4.077 4.077 0 0 1-1.562 1.98c-.733.484-1.613.726-2.64.726-1.027 0-1.951-.249-2.772-.748-.821-.499-1.467-1.217-1.936-2.156-.455-.953-.682-2.068-.682-3.344 0-1.276.227-2.383.682-3.322.469-.953 1.115-1.679 1.936-2.178.821-.499 1.745-.748 2.772-.748zm.968 2.706c-.968 0-1.745.315-2.332.946-.587.631-.88 1.496-.88 2.596s.293 1.965.88 2.596c.587.616 1.364.924 2.332.924.939 0 1.709-.315 2.31-.946.616-.645.924-1.503.924-2.574 0-1.085-.308-1.943-.924-2.574-.601-.645-1.371-.968-2.31-.968zm14.603-2.706c1.57 0 2.875.425 3.916 1.276 1.056.851 1.716 2.009 1.98 3.476h-3.278c-.132-.645-.432-1.151-.902-1.518-.469-.381-1.063-.572-1.782-.572-.821 0-1.51.308-2.068.924-.542.601-.814 1.489-.814 2.662 0 1.173.272 2.068.814 2.684a2.71 2.71 0 0 0 2.068.902c.719 0 1.313-.183 1.782-.55.47-.381.77-.895.902-1.54h3.278c-.264 1.467-.924 2.625-1.98 3.476-1.041.851-2.346 1.276-3.916 1.276-1.188 0-2.244-.249-3.168-.748a5.407 5.407 0 0 1-2.156-2.178c-.513-.939-.77-2.046-.77-3.322 0-1.276.257-2.383.77-3.322a5.24 5.24 0 0 1 2.156-2.178c.924-.499 1.98-.748 3.168-.748zm14.612 9.68V222h-1.628c-1.364 0-2.412-.33-3.146-.99-.718-.66-1.078-1.76-1.078-3.3v-5.28h-1.694v-2.618h1.694v-3.014h3.102v3.014h2.728v2.618h-2.728v5.324c0 .587.118.997.352 1.232.235.235.631.352 1.188.352h1.21zm1.881-13.024c0-.499.176-.902.528-1.21.352-.323.814-.484 1.386-.484s1.034.161 1.386.484c.352.308.528.711.528 1.21 0 .484-.176.887-.528 1.21-.352.308-.814.462-1.386.462s-1.034-.154-1.386-.462a1.574 1.574 0 0 1-.528-1.21zm3.454 3.498V222h-3.102v-12.188h3.102zm8.438-.154c1.188 0 2.251.249 3.19.748a5.447 5.447 0 0 1 2.244 2.178c.542.939.814 2.046.814 3.322 0 1.276-.272 2.383-.814 3.322a5.624 5.624 0 0 1-2.244 2.178c-.939.499-2.002.748-3.19.748-1.188 0-2.259-.249-3.212-.748a5.653 5.653 0 0 1-2.222-2.178c-.543-.939-.814-2.046-.814-3.322 0-1.276.271-2.383.814-3.322a5.472 5.472 0 0 1 2.222-2.178c.953-.499 2.024-.748 3.212-.748zm0 2.684c-.866 0-1.599.308-2.2.924-.602.601-.902 1.481-.902 2.64s.3 2.046.902 2.662c.601.601 1.334.902 2.2.902.865 0 1.598-.301 2.2-.902.601-.616.902-1.503.902-2.662s-.301-2.039-.902-2.64a2.96 2.96 0 0 0-2.2-.924zm15.7-2.706c1.408 0 2.53.462 3.366 1.386.836.924 1.254 2.222 1.254 3.894V222h-3.08v-6.732c0-.968-.249-1.716-.748-2.244-.499-.543-1.181-.814-2.046-.814-.88 0-1.584.286-2.112.858-.528.572-.792 1.393-.792 2.464V222h-3.102v-12.188h3.102v2.442a3.85 3.85 0 0 1 1.584-1.914c.748-.469 1.606-.704 2.574-.704zM82.96 268.336c0 1.12-.235 2.107-.704 2.96-.47.853-1.152 1.52-2.048 2-.885.469-1.941.704-3.168.704h-4.016v-11.296h4.016c1.227 0 2.283.235 3.168.704a4.747 4.747 0 0 1 2.048 1.968c.47.843.704 1.829.704 2.96zm-6.112 3.648c1.216 0 2.155-.32 2.816-.96.672-.64 1.008-1.536 1.008-2.688 0-1.163-.336-2.064-1.008-2.704-.661-.64-1.6-.96-2.816-.96H75.28v7.312h1.568zm10.057-5.152a3.647 3.647 0 0 1 1.312-1.328 3.44 3.44 0 0 1 1.824-.496v2.416h-.656c-1.653 0-2.48.768-2.48 2.304V274h-2.256v-8.864h2.256v1.696zm4.129-4.24c0-.363.128-.656.384-.88.256-.235.592-.352 1.008-.352.416 0 .752.117 1.008.352.256.224.384.517.384.88 0 .352-.128.645-.384.88-.256.224-.592.336-1.008.336-.416 0-.752-.112-1.008-.336a1.145 1.145 0 0 1-.384-.88zm2.512 2.544V274H91.29v-8.864h2.256zm7.337-.112c.746 0 1.418.181 2.016.544.597.363 1.061.891 1.392 1.584.341.683.512 1.488.512 2.416 0 .928-.171 1.739-.512 2.432-.331.683-.795 1.205-1.392 1.568a3.808 3.808 0 0 1-2.016.544c-.747 0-1.387-.176-1.92-.528a2.995 2.995 0 0 1-1.12-1.44V274h-2.257v-11.84h2.257v4.816a2.905 2.905 0 0 1 1.12-1.424c.533-.352 1.173-.528 1.92-.528zm-.704 1.968c-.683 0-1.249.235-1.697.704-.437.459-.656 1.083-.656 1.872 0 .779.22 1.403.657 1.872.447.459 1.013.688 1.696.688.704 0 1.269-.224 1.696-.672.426-.459.64-1.088.64-1.888 0-.8-.214-1.429-.64-1.888-.427-.459-.992-.688-1.696-.688zm11.516-1.968c.747 0 1.419.181 2.016.544.597.363 1.061.891 1.392 1.584.341.683.512 1.488.512 2.416 0 .928-.171 1.739-.512 2.432-.331.683-.795 1.205-1.392 1.568-.597.363-1.269.544-2.016.544-.747 0-1.387-.176-1.92-.528a2.993 2.993 0 0 1-1.12-1.44V274h-2.256v-11.84h2.256v4.816a2.903 2.903 0 0 1 1.12-1.424c.533-.352 1.173-.528 1.92-.528zm-.704 1.968c-.683 0-1.248.235-1.696.704-.437.459-.656 1.083-.656 1.872 0 .779.219 1.403.656 1.872.448.459 1.013.688 1.696.688.704 0 1.269-.224 1.696-.672.427-.459.64-1.088.64-1.888 0-.8-.213-1.429-.64-1.888-.427-.459-.992-.688-1.696-.688zm11.517-1.968c.746 0 1.418.181 2.016.544.597.363 1.061.891 1.392 1.584.341.683.512 1.488.512 2.416 0 .928-.171 1.739-.512 2.432-.331.683-.795 1.205-1.392 1.568a3.808 3.808 0 0 1-2.016.544c-.747 0-1.387-.176-1.92-.528a2.993 2.993 0 0 1-1.12-1.44V274h-2.256v-11.84h2.256v4.816a2.903 2.903 0 0 1 1.12-1.424c.533-.352 1.173-.528 1.92-.528zm-.704 1.968c-.683 0-1.248.235-1.696.704-.438.459-.656 1.083-.656 1.872 0 .779.218 1.403.656 1.872.448.459 1.013.688 1.696.688.704 0 1.269-.224 1.696-.672.426-.459.64-1.088.64-1.888 0-.8-.214-1.429-.64-1.888-.427-.459-.992-.688-1.696-.688zm8.476-4.832V274h-2.256v-11.84h2.256zm10.377 7.072c0 .224-.027.48-.08.768h-6.496c.032.789.245 1.371.64 1.744s.885.56 1.472.56c.523 0 .955-.128 1.296-.384a1.69 1.69 0 0 0 .672-1.04h2.384a3.81 3.81 0 0 1-.752 1.664 3.91 3.91 0 0 1-1.488 1.152c-.597.277-1.264.416-2 .416-.864 0-1.632-.181-2.304-.544a3.926 3.926 0 0 1-1.568-1.584c-.373-.683-.56-1.488-.56-2.416 0-.928.187-1.733.56-2.416a3.807 3.807 0 0 1 1.568-1.584c.672-.363 1.44-.544 2.304-.544.875 0 1.637.181 2.288.544a3.757 3.757 0 0 1 1.52 1.504c.363.629.544 1.349.544 2.16zm-2.272-.224c.032-.725-.16-1.275-.576-1.648-.405-.373-.907-.56-1.504-.56-.608 0-1.12.187-1.536.56-.416.373-.645.923-.688 1.648h4.304zm9.614.8V274h-2.256v-11.296h4.112c1.333 0 2.336.32 3.008.96.682.64 1.024 1.509 1.024 2.608 0 1.077-.352 1.936-1.056 2.576-.694.64-1.686.96-2.976.96h-1.856zm1.616-1.808c1.322 0 1.984-.576 1.984-1.728 0-.565-.155-.997-.464-1.296-.31-.299-.816-.448-1.52-.448h-1.616V268h1.616zm7.993-1.168a3.649 3.649 0 0 1 1.312-1.328 3.44 3.44 0 0 1 1.824-.496v2.416h-.656c-1.653 0-2.48.768-2.48 2.304V274h-2.256v-8.864h2.256v1.696zm8.481-1.808c.864 0 1.637.181 2.32.544a3.963 3.963 0 0 1 1.632 1.584c.394.683.592 1.488.592 2.416 0 .928-.198 1.733-.592 2.416a4.09 4.09 0 0 1-1.632 1.584c-.683.363-1.456.544-2.32.544-.864 0-1.643-.181-2.336-.544a4.108 4.108 0 0 1-1.616-1.584c-.395-.683-.592-1.488-.592-2.416 0-.928.197-1.733.592-2.416a3.98 3.98 0 0 1 1.616-1.584c.693-.363 1.472-.544 2.336-.544zm0 1.952a2.15 2.15 0 0 0-1.6.672c-.438.437-.656 1.077-.656 1.92s.218 1.488.656 1.936c.437.437.97.656 1.6.656a2.18 2.18 0 0 0 1.6-.656c.437-.448.656-1.093.656-1.936s-.219-1.483-.656-1.92a2.153 2.153 0 0 0-1.6-.672zM80.416 326.816v7.68l-5.072-7.68h-2.24V338h2.24v-7.664L80.416 338h2.24v-11.184h-2.24zm8.262 4.016c1.152 0 2.08.736 2.112 1.904h-4.208c.176-1.216 1.024-1.904 2.096-1.904zm4.208 4.384H90.47c-.288.592-.816 1.072-1.776 1.072-1.12 0-2.016-.736-2.128-2.048h6.48c.048-.288.064-.576.064-.864 0-2.64-1.808-4.384-4.368-4.384-2.624 0-4.448 1.776-4.448 4.576 0 2.784 1.872 4.576 4.448 4.576 2.192 0 3.664-1.296 4.144-2.928zm2.21.032c0 2.032 1.137 2.752 2.833 2.752h1.408v-1.888h-1.04c-.704 0-.944-.256-.944-.848v-4.288h1.984v-1.84h-1.984v-2.192h-2.256v2.192H94.04v1.84h1.056v4.272zm6.092 2.752h2.272v-7.024h1.552v-1.84h-1.552v-.368c0-.992.368-1.344 1.456-1.312v-1.888c-2.496-.064-3.728.944-3.728 3.12v.448h-1.008v1.84h1.008V338zm5.275 0h2.24v-11.84h-2.24V338zm4.454 0h2.24v-8.864h-2.24V338zm1.136-9.92c.784 0 1.376-.576 1.376-1.312 0-.736-.592-1.312-1.376-1.312-.8 0-1.376.576-1.376 1.312 0 .736.576 1.312 1.376 1.312zm8.213 9.92h2.528l-2.944-4.448 2.912-4.416h-2.4l-1.632 2.736-1.808-2.736h-2.528l2.928 4.416-2.896 4.448h2.4l1.616-2.752 1.824 2.752zM73.104 402h2.24v-7.264L78.352 402h1.696l2.992-7.264V402h2.24v-11.168h-2.528l-3.552 8.304-3.552-8.304h-2.544V402zm13.815-4.464c0 2.768 1.792 4.608 4.032 4.608 1.408 0 2.416-.672 2.944-1.44V402h2.256v-8.864h-2.256v1.264c-.528-.736-1.504-1.408-2.928-1.408-2.256 0-4.048 1.776-4.048 4.544zm6.976.032c0 1.68-1.12 2.608-2.352 2.608-1.2 0-2.336-.96-2.336-2.64 0-1.68 1.136-2.576 2.336-2.576 1.232 0 2.352.928 2.352 2.608zM104.546 402h2.24v-5.2c0-2.448-1.472-3.792-3.536-3.792-1.136 0-2.096.48-2.672 1.232v-1.104h-2.24V402h2.24v-4.896c0-1.424.784-2.192 2-2.192 1.184 0 1.968.768 1.968 2.192V402zm12.739-8.864h-2.256v4.88c0 1.424-.768 2.192-1.984 2.192-1.184 0-1.968-.768-1.968-2.192v-4.88h-2.24v5.2c0 2.432 1.488 3.776 3.552 3.776 1.104 0 2.08-.48 2.64-1.232V402h2.256v-8.864zm2.21 8.864h2.24v-11.84h-2.24V402zm4.453 0h2.24v-8.864h-2.24V402zm1.136-9.92c.784 0 1.376-.576 1.376-1.312 0-.736-.592-1.312-1.376-1.312-.8 0-1.376.576-1.376 1.312 0 .736.576 1.312 1.376 1.312zm3.557 9.92h2.272v-7.024h1.552v-1.84h-1.552v-.368c0-.992.368-1.344 1.456-1.312v-1.888c-2.496-.064-3.728.944-3.728 3.12v.448h-1.008v1.84h1.008V402zm9.084-7.168c1.152 0 2.08.736 2.112 1.904h-4.208c.176-1.216 1.024-1.904 2.096-1.904zm4.208 4.384h-2.416c-.288.592-.816 1.072-1.776 1.072-1.12 0-2.016-.736-2.128-2.048h6.48c.048-.288.064-.576.064-.864 0-2.64-1.808-4.384-4.368-4.384-2.625 0-4.449 1.776-4.449 4.576 0 2.784 1.873 4.576 4.449 4.576 2.192 0 3.664-1.296 4.144-2.928zm5.127-2.816c0 3.344 2.448 5.696 5.664 5.696 2.48 0 4.496-1.312 5.248-3.616h-2.576c-.528 1.088-1.488 1.616-2.688 1.616-1.952 0-3.344-1.44-3.344-3.696 0-2.272 1.392-3.696 3.344-3.696 1.2 0 2.16.528 2.688 1.6h2.576c-.752-2.288-2.768-3.616-5.248-3.616-3.216 0-5.664 2.368-5.664 5.712zm12.249 1.136c0 2.768 1.792 4.608 4.032 4.608 1.408 0 2.416-.672 2.944-1.44V402h2.256v-8.864h-2.256v1.264c-.528-.736-1.504-1.408-2.928-1.408-2.256 0-4.048 1.776-4.048 4.544zm6.976.032c0 1.68-1.12 2.608-2.352 2.608-1.2 0-2.336-.96-2.336-2.64 0-1.68 1.136-2.576 2.336-2.576 1.232 0 2.352.928 2.352 2.608zm11.324 1.904c-.064-3.248-4.976-2.24-4.976-3.856 0-.512.432-.848 1.264-.848.88 0 1.424.464 1.488 1.152h2.144c-.128-1.76-1.424-2.928-3.568-2.928-2.192 0-3.504 1.184-3.504 2.656 0 3.248 5.008 2.24 5.008 3.824 0 .512-.48.912-1.36.912-.896 0-1.52-.512-1.6-1.184h-2.256c.096 1.648 1.648 2.944 3.872 2.944 2.16 0 3.488-1.152 3.488-2.672zm1.839 2.528h2.24v-4.896c0-1.424.784-2.192 2-2.192 1.184 0 1.968.768 1.968 2.192V402h2.24v-5.2c0-2.448-1.456-3.792-3.456-3.792-1.184 0-2.176.48-2.752 1.232v-4.08h-2.24V402z" fill="#fff"/><circle cx="40" cy="279" r="20" fill="#FDFDFE"/><circle cx="40" cy="343" r="20" fill="#FDFDFE"/><circle cx="40" cy="407" r="20" fill="#DFFFF0"/><path d="M243.201 283.25a2 2 0 0 1-3.402 0l-2.906-4.698c-.824-1.332.134-3.052 1.701-3.052h5.812c1.567 0 2.525 1.72 1.701 3.052l-2.906 4.698zM243.201 347.25a2 2 0 0 1-3.402 0l-2.906-4.698c-.824-1.332.134-3.052 1.701-3.052h5.812c1.567 0 2.525 1.72 1.701 3.052l-2.906 4.698z" fill="#BB2D2D"/><path d="M239.799 402.75a2 2 0 0 1 3.402 0l2.906 4.698c.824 1.332-.134 3.052-1.701 3.052h-5.812c-1.567 0-2.525-1.72-1.701-3.052l2.906-4.698z" fill="#1AE5BE"/><g clip-path="url(#c)"><path d="M40 260.328c10.312 0 18.656 8.344 18.656 18.641 0 10.297-8.344 18.656-18.656 18.656-10.313 0-18.656-8.344-18.656-18.641 0-10.296 8.343-18.656 18.656-18.656z" fill="#E74D89"/><path d="M40 298.953c-11.031 0-20-8.953-20-19.969C20 267.953 28.969 259 40 259s20 8.953 20 19.969c0 11.015-8.969 19.984-20 19.984zm16.86-17.25c-.579-.187-5.282-1.578-10.641-.734 2.234 6.125 3.14 11.125 3.312 12.156 3.844-2.578 6.578-6.672 7.328-11.422zm-10.188 13c-.25-1.5-1.25-6.719-3.64-12.937a.3.3 0 0 1-.11.031c-9.64 3.359-13.094 10.031-13.406 10.656A17.016 17.016 0 0 0 40 296.047a16.7 16.7 0 0 0 6.672-1.344zm-19.36-4.297c.391-.656 5.079-8.406 13.891-11.265.219-.079.453-.141.672-.203a44.384 44.384 0 0 0-1.39-2.891c-8.532 2.547-16.813 2.437-17.563 2.422 0 .172-.016.343-.016.515a17.073 17.073 0 0 0 4.407 11.422zm-4.03-14.906c.765.016 7.796.047 15.796-2.078-2.828-5.031-5.89-9.25-6.328-9.86-4.797 2.25-8.36 6.657-9.469 11.938zM36 262.406c.469.625 3.578 4.844 6.375 9.985 6.078-2.282 8.64-5.719 8.953-6.157A17.03 17.03 0 0 0 40 261.938a17.73 17.73 0 0 0-4 .468zm17.219 5.797c-.36.485-3.219 4.156-9.532 6.735.391.812.782 1.64 1.141 2.468.125.297.25.594.375.875 5.688-.719 11.328.438 11.89.547a16.992 16.992 0 0 0-3.874-10.625z" fill="#B2215A"/></g><path d="M28.846 347.013c-.463.082-.934.106-1.421.171l-1.486-4.367v4.555c-.463.048-.885.114-1.324.179v-8.344h1.235l1.688 4.734v-4.734h1.308v7.806zm2.558-4.75c.503 0 1.275-.025 1.738-.025v1.304c-.577 0-1.25 0-1.738.024v1.94c.763-.049 1.527-.115 2.298-.139v1.255l-3.597.285v-7.7h3.597v1.304h-2.298v1.752zm7.13-1.752h-1.348v5.997c-.439 0-.877 0-1.3.016v-6.013H34.54v-1.304h3.995v1.304zm2.111 1.662h1.779v1.304h-1.779v2.958H39.37v-7.228H43v1.304h-2.355v1.662zm4.467 3.121c.739.016 1.486.073 2.209.114v1.287c-1.162-.073-2.323-.146-3.509-.171v-7.317h1.3v6.087zm3.305 1.491c.414.024.852.049 1.275.098v-7.676h-1.275v7.578zm6.967-7.578-1.648 3.968 1.648 4.376c-.487-.065-.974-.155-1.462-.237l-.933-2.411-.95 2.216c-.471-.082-.926-.106-1.397-.171l1.673-3.822-1.51-3.919H52.2l.853 2.192.91-2.192h1.42z" fill="#D81F26"/><path d="M45.4 400.618v16.277l3.6-3.619V397l-3.6 3.618zm-7.2 16.276 3.6-3.617V397l-3.6 3.617v16.277zm-7.2 0 3.6-3.617V397l-3.6 3.617v16.277z" fill="#00AC5B"/><g filter="url(#d)"><rect x="225" y="24" width="227" height="216" rx="10" fill="url(#e)"/></g><path fill-rule="evenodd" clip-rule="evenodd" d="M429.511 128h-62.873a3 3 0 0 0-3 3v25a3 3 0 0 0 3 3h62.873a3 3 0 0 0 3-3v-25a3 3 0 0 0-3-3zm-62.873-1a4 4 0 0 0-4 4v25a4 4 0 0 0 4 4h62.873a4 4 0 0 0 4-4v-25a4 4 0 0 0-4-4h-62.873z" fill="url(#f)"/><rect x="245.543" y="184" width="187.968" height="33" rx="10" fill="url(#g)"/><circle cx="273.543" cy="72" r="28" fill="#fff"/><path d="M318.255 60.712V67h-3.384V50.056h6.168c2 0 3.504.48 4.512 1.44 1.024.96 1.536 2.264 1.536 3.912 0 1.616-.528 2.904-1.584 3.864-1.04.96-2.528 1.44-4.464 1.44h-2.784zM320.679 58c1.984 0 2.976-.864 2.976-2.592 0-.848-.232-1.496-.696-1.944-.464-.448-1.224-.672-2.28-.672h-2.424V58h2.424zm14.054-4.464c1.12 0 2.08.264 2.88.792.8.528 1.368 1.24 1.704 2.136v-2.76h3.36V67h-3.36v-2.784a4.442 4.442 0 0 1-1.704 2.16c-.8.528-1.76.792-2.88.792-1.12 0-2.128-.272-3.024-.816-.896-.544-1.6-1.328-2.112-2.352-.496-1.04-.744-2.256-.744-3.648 0-1.392.248-2.6.744-3.624.512-1.04 1.216-1.832 2.112-2.376.896-.544 1.904-.816 3.024-.816zm1.056 2.952c-1.056 0-1.904.344-2.544 1.032-.64.688-.96 1.632-.96 2.832s.32 2.144.96 2.832c.64.672 1.488 1.008 2.544 1.008 1.024 0 1.864-.344 2.52-1.032.672-.704 1.008-1.64 1.008-2.808 0-1.184-.336-2.12-1.008-2.808-.656-.704-1.496-1.056-2.52-1.056zm12.475-2.784 3.624 9.024 3.36-9.024h3.72l-8.136 19.632h-3.744l3-6.72-5.592-12.912h3.768zm20.482-.168c1.12 0 2.128.272 3.024.816.896.544 1.592 1.336 2.088 2.376.512 1.024.768 2.232.768 3.624s-.256 2.608-.768 3.648c-.496 1.024-1.192 1.808-2.088 2.352-.896.544-1.904.816-3.024.816s-2.08-.264-2.88-.792a4.488 4.488 0 0 1-1.68-2.16v9.12h-3.384V53.704h3.384v2.76a4.355 4.355 0 0 1 1.68-2.136c.8-.528 1.76-.792 2.88-.792zm-1.056 2.952c-1.024 0-1.872.352-2.544 1.056-.656.688-.984 1.624-.984 2.808 0 1.168.328 2.104.984 2.808.672.688 1.52 1.032 2.544 1.032 1.056 0 1.904-.336 2.544-1.008.64-.688.96-1.632.96-2.832s-.32-2.144-.96-2.832c-.64-.688-1.488-1.032-2.544-1.032zm14.779-2.952c1.12 0 2.08.264 2.88.792.8.528 1.368 1.24 1.704 2.136v-2.76h3.36V67h-3.36v-2.784a4.442 4.442 0 0 1-1.704 2.16c-.8.528-1.76.792-2.88.792-1.12 0-2.128-.272-3.024-.816-.896-.544-1.6-1.328-2.112-2.352-.496-1.04-.744-2.256-.744-3.648 0-1.392.248-2.6.744-3.624.512-1.04 1.216-1.832 2.112-2.376.896-.544 1.904-.816 3.024-.816zm1.056 2.952c-1.056 0-1.904.344-2.544 1.032-.64.688-.96 1.632-.96 2.832s.32 2.144.96 2.832c.64.672 1.488 1.008 2.544 1.008 1.024 0 1.864-.344 2.52-1.032.672-.704 1.008-1.64 1.008-2.808 0-1.184-.336-2.12-1.008-2.808-.656-.704-1.496-1.056-2.52-1.056zm13.578-7.248V67h-3.384V49.24h3.384z" fill="#fff"/><path d="M320.009 83.456c1.032 0 1.884.256 2.556.768.672.504 1.136 1.196 1.392 2.076h-1.152a2.786 2.786 0 0 0-1.044-1.332c-.48-.336-1.068-.504-1.764-.504-.552 0-1.048.136-1.488.408-.432.264-.776.648-1.032 1.152-.248.496-.372 1.08-.372 1.752 0 .664.124 1.244.372 1.74.256.496.6.88 1.032 1.152.44.264.936.396 1.488.396.696 0 1.284-.164 1.764-.492.48-.336.828-.784 1.044-1.344h1.152c-.256.88-.72 1.576-1.392 2.088-.672.504-1.524.756-2.556.756-.792 0-1.492-.18-2.1-.54a3.857 3.857 0 0 1-1.428-1.524c-.336-.656-.504-1.4-.504-2.232 0-.84.168-1.588.504-2.244a3.754 3.754 0 0 1 1.428-1.524c.608-.368 1.308-.552 2.1-.552zm8.997 1.848c.768 0 1.388.248 1.86.744.472.488.708 1.196.708 2.124V92h-1.092v-3.732c0-.656-.168-1.16-.504-1.512-.336-.352-.792-.528-1.368-.528-.6 0-1.08.196-1.44.588-.36.384-.54.948-.54 1.692V92h-1.092v-8.88h1.092v3.852c.168-.536.464-.948.888-1.236a2.62 2.62 0 0 1 1.488-.432zm10.422 3.036c0 .232-.016.432-.048.6h-5.268c.024.752.236 1.316.636 1.692.408.376.904.564 1.488.564.528 0 .968-.132 1.32-.396.36-.272.58-.632.66-1.08h1.164c-.08.456-.26.864-.54 1.224-.272.36-.628.64-1.068.84-.44.2-.936.3-1.488.3-.632 0-1.192-.136-1.68-.408a2.932 2.932 0 0 1-1.152-1.164c-.272-.512-.408-1.112-.408-1.8s.136-1.288.408-1.8c.28-.512.664-.904 1.152-1.176.488-.272 1.048-.408 1.68-.408.64 0 1.196.136 1.668.408.48.272.844.636 1.092 1.092.256.456.384.96.384 1.512zm-1.104.072c.024-.488-.056-.896-.24-1.224a1.755 1.755 0 0 0-.756-.732c-.32-.16-.668-.24-1.044-.24-.6 0-1.104.188-1.512.564-.408.368-.628.912-.66 1.632h4.212zm5.569-3.084c.84 0 1.536.224 2.088.672.552.448.892 1.048 1.02 1.8h-1.152c-.08-.472-.3-.84-.66-1.104-.352-.272-.792-.408-1.32-.408-.384 0-.736.088-1.056.264-.312.176-.564.448-.756.816-.192.36-.288.808-.288 1.344s.096.988.288 1.356c.192.36.444.628.756.804.32.176.672.264 1.056.264.528 0 .968-.136 1.32-.408.36-.272.58-.644.66-1.116h1.152c-.128.76-.468 1.364-1.02 1.812-.552.44-1.248.66-2.088.66-.632 0-1.192-.136-1.68-.408a2.932 2.932 0 0 1-1.152-1.164c-.272-.512-.408-1.112-.408-1.8s.136-1.288.408-1.8c.28-.512.664-.904 1.152-1.176.488-.272 1.048-.408 1.68-.408zM352.162 92l-2.52-2.964V92h-1.092v-8.88h1.092v5.16l2.484-2.868h1.332l-2.952 3.276L353.53 92h-1.368zm5.437-6.672c.632 0 1.196.136 1.692.408.504.272.896.664 1.176 1.176.288.512.432 1.112.432 1.8s-.144 1.288-.432 1.8a2.89 2.89 0 0 1-1.176 1.164c-.496.272-1.06.408-1.692.408a3.53 3.53 0 0 1-1.704-.408 2.99 2.99 0 0 1-1.176-1.164c-.288-.512-.432-1.112-.432-1.8s.144-1.288.432-1.8a2.97 2.97 0 0 1 1.176-1.176 3.53 3.53 0 0 1 1.704-.408zm0 .96c-.392 0-.756.088-1.092.264a2.025 2.025 0 0 0-.804.816c-.2.36-.3.808-.3 1.344 0 .528.1.976.3 1.344.208.36.476.628.804.804.336.176.7.264 1.092.264.392 0 .752-.088 1.08-.264.336-.176.604-.444.804-.804.208-.368.312-.816.312-1.344 0-.536-.104-.984-.312-1.344a1.93 1.93 0 0 0-.804-.816 2.248 2.248 0 0 0-1.08-.264zm10.699-.876V92h-1.092v-1.548c-.168.536-.468.948-.9 1.236-.424.28-.92.42-1.488.42-.76 0-1.376-.244-1.848-.732-.472-.496-.708-1.204-.708-2.124v-3.84h1.092v3.732c0 .656.168 1.164.504 1.524.336.352.792.528 1.368.528.6 0 1.08-.192 1.44-.576.36-.392.54-.96.54-1.704v-3.504h1.092zm5.014 5.628V92h-.816c-.672 0-1.176-.16-1.512-.48-.328-.32-.492-.856-.492-1.608V86.36h-.984v-.948h.984v-1.644h1.104v1.644h1.704v.948h-1.704v3.576c0 .424.076.716.228.876.16.152.432.228.816.228h.672z" fill="#fff" fill-opacity=".7"/><path d="M377.529 139.456c1.032 0 1.884.256 2.556.768.672.504 1.136 1.196 1.392 2.076h-1.152a2.786 2.786 0 0 0-1.044-1.332c-.48-.336-1.068-.504-1.764-.504-.552 0-1.048.136-1.488.408-.432.264-.776.648-1.032 1.152-.248.496-.372 1.08-.372 1.752 0 .664.124 1.244.372 1.74.256.496.6.88 1.032 1.152.44.264.936.396 1.488.396.696 0 1.284-.164 1.764-.492.48-.336.828-.784 1.044-1.344h1.152c-.256.88-.72 1.576-1.392 2.088-.672.504-1.524.756-2.556.756-.792 0-1.492-.18-2.1-.54a3.857 3.857 0 0 1-1.428-1.524c-.336-.656-.504-1.4-.504-2.232 0-.84.168-1.588.504-2.244a3.754 3.754 0 0 1 1.428-1.524c.608-.368 1.308-.552 2.1-.552zm8.997 1.848c.768 0 1.388.248 1.86.744.472.488.708 1.196.708 2.124V148h-1.092v-3.732c0-.656-.168-1.16-.504-1.512-.336-.352-.792-.528-1.368-.528-.6 0-1.08.196-1.44.588-.36.384-.54.948-.54 1.692V148h-1.092v-8.88h1.092v3.852c.168-.536.464-.948.888-1.236a2.62 2.62 0 0 1 1.488-.432zm7.063.024c.64 0 1.18.16 1.62.48.448.32.76.748.936 1.284v-1.68h1.092V148h-1.092v-1.68a2.49 2.49 0 0 1-.936 1.284c-.44.32-.98.48-1.62.48a2.986 2.986 0 0 1-1.56-.408 2.87 2.87 0 0 1-1.08-1.164c-.256-.512-.384-1.112-.384-1.8s.128-1.288.384-1.8a2.853 2.853 0 0 1 1.08-1.176 2.986 2.986 0 0 1 1.56-.408zm.312.972c-.672 0-1.212.216-1.62.648-.4.424-.6 1.012-.6 1.764s.2 1.344.6 1.776c.408.424.948.636 1.62.636.432 0 .816-.1 1.152-.3.344-.2.612-.48.804-.84.192-.368.288-.792.288-1.272s-.096-.904-.288-1.272a1.99 1.99 0 0 0-.804-.84c-.336-.2-.72-.3-1.152-.3zm8.662-.996c.768 0 1.388.248 1.86.744.472.488.708 1.196.708 2.124V148h-1.092v-3.732c0-.656-.168-1.16-.504-1.512-.336-.352-.792-.528-1.368-.528-.6 0-1.08.196-1.44.588-.36.384-.54.948-.54 1.692V148h-1.092v-6.588h1.092v1.56c.168-.536.464-.948.888-1.236a2.62 2.62 0 0 1 1.488-.432zm7.063.024c.64 0 1.18.16 1.62.48.448.32.76.748.936 1.284v-1.68h1.092v6.696c0 .608-.128 1.148-.384 1.62-.256.472-.616.84-1.08 1.104-.464.264-1.004.396-1.62.396-.888 0-1.612-.216-2.172-.648-.56-.424-.916-1-1.068-1.728h1.08c.128.44.368.784.72 1.032.36.256.82.384 1.38.384.592 0 1.08-.192 1.464-.576.392-.376.588-.904.588-1.584v-1.788a2.49 2.49 0 0 1-.936 1.284c-.44.32-.98.48-1.62.48a2.986 2.986 0 0 1-1.56-.408 2.87 2.87 0 0 1-1.08-1.164c-.256-.512-.384-1.112-.384-1.8s.128-1.288.384-1.8a2.853 2.853 0 0 1 1.08-1.176 2.986 2.986 0 0 1 1.56-.408zm.312.972c-.672 0-1.212.216-1.62.648-.4.424-.6 1.012-.6 1.764s.2 1.344.6 1.776c.408.424.948.636 1.62.636.432 0 .816-.1 1.152-.3.344-.2.612-.48.804-.84.192-.368.288-.792.288-1.272s-.096-.904-.288-1.272a1.99 1.99 0 0 0-.804-.84c-.336-.2-.72-.3-1.152-.3zm11.254 2.04c0 .232-.016.432-.048.6h-5.268c.024.752.236 1.316.636 1.692.408.376.904.564 1.488.564.528 0 .968-.132 1.32-.396.36-.272.58-.632.66-1.08h1.164c-.08.456-.26.864-.54 1.224-.272.36-.628.64-1.068.84-.44.2-.936.3-1.488.3-.632 0-1.192-.136-1.68-.408a2.932 2.932 0 0 1-1.152-1.164c-.272-.512-.408-1.112-.408-1.8s.136-1.288.408-1.8c.28-.512.664-.904 1.152-1.176.488-.272 1.048-.408 1.68-.408.64 0 1.196.136 1.668.408.48.272.844.636 1.092 1.092.256.456.384.96.384 1.512zm-1.104.072c.024-.488-.056-.896-.24-1.224a1.755 1.755 0 0 0-.756-.732c-.32-.16-.668-.24-1.044-.24-.6 0-1.104.188-1.512.564-.408.368-.628.912-.66 1.632h4.212z" fill="url(#h)"/><path d="M302.404 196.66V205h-1.38v-6.252L298.612 205h-1.2l-2.424-6.252V205h-1.368v-8.34h1.656l2.76 6.66 2.712-6.66h1.656zm4.418 1.644c.6 0 1.112.148 1.536.444.424.296.724.688.9 1.176v-1.536h1.368V205h-1.368v-1.536a2.39 2.39 0 0 1-.9 1.176c-.424.296-.936.444-1.536.444a2.963 2.963 0 0 1-1.548-.408 2.802 2.802 0 0 1-1.056-1.176c-.256-.512-.384-1.116-.384-1.812 0-.688.128-1.288.384-1.8a2.802 2.802 0 0 1 1.056-1.176 2.963 2.963 0 0 1 1.548-.408zm.42 1.2c-.608 0-1.096.196-1.464.588-.36.384-.54.916-.54 1.596s.18 1.216.54 1.608c.368.384.856.576 1.464.576.384 0 .728-.088 1.032-.264.304-.184.544-.44.72-.768.176-.328.264-.712.264-1.152 0-.432-.088-.812-.264-1.14a1.859 1.859 0 0 0-.72-.768 1.954 1.954 0 0 0-1.032-.276zm8.889 5.496-2.376-2.94V205h-1.368v-8.88h1.368v5.088l2.352-2.82h1.644l-2.88 3.288 2.952 3.324h-1.692zm8.848-3.624c0 .224-.016.42-.048.588h-5.088c.024.68.212 1.184.564 1.512.352.328.788.492 1.308.492.456 0 .84-.116 1.152-.348.32-.232.516-.54.588-.924h1.464a2.846 2.846 0 0 1-.552 1.236c-.28.36-.644.644-1.092.852-.448.2-.948.3-1.5.3-.64 0-1.208-.136-1.704-.408a2.913 2.913 0 0 1-1.152-1.176c-.28-.512-.42-1.116-.42-1.812 0-.688.14-1.288.42-1.8.28-.512.664-.904 1.152-1.176.496-.272 1.064-.408 1.704-.408.648 0 1.212.136 1.692.408a2.7 2.7 0 0 1 1.116 1.104c.264.464.396.984.396 1.56zm-1.38-.036c.016-.432-.06-.792-.228-1.08a1.462 1.462 0 0 0-.672-.648 1.99 1.99 0 0 0-.924-.216c-.536 0-.984.164-1.344.492-.36.328-.556.812-.588 1.452h3.756zm7.122.372V205h-1.368v-8.472h2.88c.976 0 1.708.232 2.196.696.496.464.744 1.1.744 1.908 0 .8-.252 1.432-.756 1.896-.504.456-1.232.684-2.184.684h-1.512zm1.368-1.116c1.128 0 1.692-.488 1.692-1.464 0-.48-.136-.844-.408-1.092-.264-.256-.692-.384-1.284-.384h-1.368v2.94h1.368zm7.055-2.292c.6 0 1.112.148 1.536.444.424.296.724.688.9 1.176v-1.536h1.368V205h-1.368v-1.536a2.39 2.39 0 0 1-.9 1.176c-.424.296-.936.444-1.536.444a2.963 2.963 0 0 1-1.548-.408 2.802 2.802 0 0 1-1.056-1.176c-.256-.512-.384-1.116-.384-1.812 0-.688.128-1.288.384-1.8a2.802 2.802 0 0 1 1.056-1.176 2.963 2.963 0 0 1 1.548-.408zm.42 1.2c-.608 0-1.096.196-1.464.588-.36.384-.54.916-.54 1.596s.18 1.216.54 1.608c.368.384.856.576 1.464.576.384 0 .728-.088 1.032-.264.304-.184.544-.44.72-.768.176-.328.264-.712.264-1.152 0-.432-.088-.812-.264-1.14a1.859 1.859 0 0 0-.72-.768 1.954 1.954 0 0 0-1.032-.276zm5.926-1.116 1.98 4.86 1.836-4.86h1.524l-3.996 9.756h-1.524l1.428-3.3-2.784-6.456h1.536zm14.627-.108c.784 0 1.408.248 1.872.744.472.496.708 1.204.708 2.124V205h-1.368v-3.708c0-.576-.144-1.02-.432-1.332-.288-.32-.684-.48-1.188-.48-.536 0-.964.172-1.284.516-.312.336-.468.832-.468 1.488V205h-1.368v-3.708c0-.576-.144-1.02-.432-1.332-.288-.32-.684-.48-1.188-.48-.536 0-.964.172-1.284.516-.312.336-.468.832-.468 1.488V205h-1.368v-6.612h1.368v1.38c.168-.48.448-.848.84-1.104.392-.256.852-.384 1.38-.384.552 0 1.028.136 1.428.408.408.272.704.664.888 1.176.192-.496.5-.884.924-1.164.424-.28.904-.42 1.44-.42zm10.442 3.096c0 .224-.016.42-.048.588h-5.088c.024.68.212 1.184.564 1.512.352.328.788.492 1.308.492.456 0 .84-.116 1.152-.348.32-.232.516-.54.588-.924h1.464a2.846 2.846 0 0 1-.552 1.236c-.28.36-.644.644-1.092.852-.448.2-.948.3-1.5.3-.64 0-1.208-.136-1.704-.408a2.913 2.913 0 0 1-1.152-1.176c-.28-.512-.42-1.116-.42-1.812 0-.688.14-1.288.42-1.8.28-.512.664-.904 1.152-1.176.496-.272 1.064-.408 1.704-.408.648 0 1.212.136 1.692.408a2.7 2.7 0 0 1 1.116 1.104c.264.464.396.984.396 1.56zm-1.38-.036c.016-.432-.06-.792-.228-1.08a1.462 1.462 0 0 0-.672-.648 1.99 1.99 0 0 0-.924-.216c-.536 0-.984.164-1.344.492-.36.328-.556.812-.588 1.452h3.756zm6.517-3.06c.768 0 1.384.248 1.848.744.464.496.696 1.204.696 2.124V205h-1.368v-3.708c0-.592-.152-1.048-.456-1.368-.304-.328-.72-.492-1.248-.492-.544 0-.98.176-1.308.528-.328.344-.492.852-.492 1.524V205H372v-6.612h1.368v1.452c.176-.496.472-.88.888-1.152a2.572 2.572 0 0 1 1.44-.408zm7.587 5.532V205h-.84c-.704 0-1.24-.168-1.608-.504-.36-.344-.54-.912-.54-1.704v-3.24h-.948v-1.164h.948v-1.644h1.38v1.644h1.596v1.164h-1.596v3.264c0 .376.068.636.204.78.144.144.392.216.744.216h.66z" fill="#00030D"/><path d="M245.951 128.524h2.292V136h1.092v-7.476h2.28v-.888h-5.664v.888zm13.368 4.176c0-2.076-1.452-3.384-3.324-3.384-1.86 0-3.324 1.308-3.324 3.384 0 2.088 1.416 3.408 3.276 3.408 1.872 0 3.372-1.32 3.372-3.408zm-5.532 0c0-1.656 1.044-2.436 2.196-2.436 1.128 0 2.22.78 2.22 2.436 0 1.668-1.116 2.448-2.256 2.448-1.14 0-2.16-.78-2.16-2.448zm7.328 1.5c0 1.32.66 1.8 1.824 1.8h.984v-.924h-.804c-.672 0-.912-.228-.912-.876v-3.876h1.716v-.9h-1.716v-1.656h-1.092v1.656h-.852v.9h.852v3.876zm3.843-1.512c0 2.04 1.356 3.42 3.108 3.42 1.212 0 2.064-.624 2.46-1.332V136h1.104v-6.576h-1.104v1.2c-.384-.684-1.224-1.308-2.448-1.308-1.764 0-3.12 1.32-3.12 3.372zm5.568.012c0 1.548-1.032 2.448-2.232 2.448-1.2 0-2.22-.912-2.22-2.46s1.02-2.424 2.22-2.424c1.2 0 2.232.912 2.232 2.436zm3.069 3.3h1.092v-8.88h-1.092V136z" fill="#fff" fill-opacity=".7"/><path d="M250.403 160.566h1.17v-1.476c2.43-.216 3.762-1.908 3.762-3.654 0-2.538-1.962-3.024-3.762-3.456v-3.888c.864.216 1.368.882 1.44 1.602h2.196c-.162-2.034-1.566-3.168-3.636-3.348v-1.458h-1.17v1.476c-2.232.198-3.78 1.584-3.78 3.6 0 2.538 1.98 3.042 3.78 3.492v3.96c-1.008-.18-1.512-.846-1.584-1.746h-2.196c0 2.034 1.584 3.24 3.78 3.438v1.458zm2.862-5.022c0 .936-.612 1.692-1.692 1.872v-3.654c.972.306 1.692.756 1.692 1.782zm-4.554-5.688c0-1.098.702-1.692 1.692-1.818v3.636c-.972-.306-1.692-.774-1.692-1.818zm9.637 8.964h8.748v-1.71h-5.706c2.106-1.926 5.346-4.356 5.346-7.542 0-2.358-1.512-3.96-4.176-3.96-2.322 0-4.158 1.386-4.23 4.23h1.98c.054-1.476.828-2.484 2.268-2.484 1.53 0 2.124.936 2.124 2.304 0 2.574-3.258 4.95-6.354 7.668v1.494zm12.135.18h2.07v-13.122h-3.744v1.872h1.674V159zm5.069-6.732c0 3.816 1.008 6.696 4.68 6.696 3.672 0 4.68-2.88 4.68-6.696 0-3.744-1.008-6.624-4.68-6.624-3.672 0-4.68 2.88-4.68 6.624zm7.344 0c0 2.574-.27 4.824-2.664 4.824s-2.664-2.25-2.664-4.824c0-2.448.27-4.752 2.664-4.752s2.664 2.304 2.664 4.752z" fill="#fff"/><path d="m268.362 86.586.532-3.37-1.186-.028h-5.662l3.935-24.87a.32.32 0 0 1 .32-.272h9.547c3.169 0 5.356.657 6.498 1.955.536.609.877 1.245 1.041 1.945.174.735.177 1.612.008 2.683l-.013.078v.686l.536.302c.408.206.776.486 1.084.824.458.52.754 1.182.879 1.966.129.807.087 1.766-.125 2.853-.244 1.25-.639 2.339-1.173 3.23a6.645 6.645 0 0 1-1.857 2.029c-.708.5-1.55.881-2.502 1.125-.922.24-1.973.36-3.127.36h-.743c-.531 0-1.047.19-1.452.533a2.24 2.24 0 0 0-.757 1.347l-.056.303-.941 5.94-.042.219c-.012.069-.031.103-.059.127a.16.16 0 0 1-.098.035h-4.587z" fill="#253B80"/><path d="M284.428 64.77c-.028.182-.061.368-.097.559-1.259 6.45-5.564 8.678-11.063 8.678h-2.799c-.673 0-1.24.488-1.344 1.15l-1.434 9.076-.406 2.572a.718.718 0 0 0 .408.761.715.715 0 0 0 .299.066h4.966c.588 0 1.088-.426 1.18-1.005l.049-.252.935-5.923.06-.325a1.193 1.193 0 0 1 1.18-1.008h.743c4.811 0 8.577-1.95 9.678-7.593.459-2.357.221-4.325-.995-5.71a4.756 4.756 0 0 0-1.36-1.046z" fill="#179BD7"/><path d="M283.136 64.325a10.026 10.026 0 0 0-1.231-.271 15.748 15.748 0 0 0-2.482-.18h-7.522a1.203 1.203 0 0 0-1.186 1.007l-1.6 10.055-.046.294c.05-.32.214-.612.462-.823a1.37 1.37 0 0 1 .89-.326h2.815c5.53 0 9.86-2.228 11.126-8.674.038-.191.069-.377.098-.559a6.762 6.762 0 0 0-1.041-.435 9.266 9.266 0 0 0-.283-.088z" fill="#222D65"/><path d="M270.79 64.847a1.192 1.192 0 0 1 1.18-1.01h7.487c.887 0 1.715.058 2.471.18.511.08 1.015.2 1.508.36.372.123.717.269 1.036.437.374-2.392-.003-4.02-1.296-5.495C281.752 57.695 279.18 57 275.89 57h-9.552c-.672 0-1.245.49-1.349 1.155l-3.979 25.24a.833.833 0 0 0 .186.662.827.827 0 0 0 .624.288h5.897l1.481-9.402 1.592-10.096z" fill="#253B80"/><g filter="url(#i)"><rect x="206" y="425" width="324" height="54" rx="10" fill="#fff"/></g><circle cx="238" cy="439" r="12" fill="#fff"/><path d="M265.488 447.032c1.176 0 2.156.289 2.94.868.784.579 1.302 1.367 1.554 2.366h-1.68a2.67 2.67 0 0 0-1.064-1.274c-.485-.317-1.064-.476-1.736-.476-.616 0-1.171.145-1.666.434-.485.289-.868.7-1.148 1.232-.271.532-.406 1.157-.406 1.876 0 .756.14 1.405.42 1.946.28.541.672.957 1.176 1.246.513.28 1.106.42 1.778.42.821 0 1.526-.252 2.114-.756.588-.513.943-1.213 1.064-2.1h-3.626v-1.176h4.97v1.526a4.728 4.728 0 0 1-.784 1.988 4.39 4.39 0 0 1-1.61 1.414c-.663.355-1.423.532-2.282.532-.961 0-1.811-.215-2.548-.644a4.41 4.41 0 0 1-1.708-1.778c-.401-.765-.602-1.638-.602-2.618s.201-1.848.602-2.604a4.323 4.323 0 0 1 1.694-1.778c.737-.429 1.587-.644 2.548-.644zm8.042 3.766a2.925 2.925 0 0 1 1.12-1.19c.485-.299 1.045-.448 1.68-.448v1.736h-.476c-.7 0-1.265.173-1.694.518-.42.336-.63.896-.63 1.68V457h-1.596v-7.714h1.596v1.512zm11.304 1.974c0 .261-.019.49-.056.686h-5.936c.028.793.247 1.381.658 1.764.411.383.919.574 1.526.574.532 0 .98-.135 1.344-.406a1.67 1.67 0 0 0 .686-1.078h1.708a3.322 3.322 0 0 1-.644 1.442c-.327.42-.751.751-1.274.994a4.253 4.253 0 0 1-1.75.35c-.747 0-1.409-.159-1.988-.476a3.403 3.403 0 0 1-1.344-1.372c-.327-.597-.49-1.302-.49-2.114 0-.803.163-1.503.49-2.1a3.403 3.403 0 0 1 1.344-1.372c.579-.317 1.241-.476 1.988-.476.756 0 1.414.159 1.974.476a3.15 3.15 0 0 1 1.302 1.288c.308.541.462 1.148.462 1.82zm-1.61-.042c.019-.504-.07-.924-.266-1.26a1.71 1.71 0 0 0-.784-.756 2.323 2.323 0 0 0-1.078-.252c-.625 0-1.148.191-1.568.574-.42.383-.649.947-.686 1.694h4.382zm6.385-3.542c.7 0 1.297.173 1.792.518.495.345.845.803 1.05 1.372v-1.792h1.596V457h-1.596v-1.792a2.784 2.784 0 0 1-1.05 1.372c-.495.345-1.092.518-1.792.518a3.46 3.46 0 0 1-1.806-.476c-.523-.317-.933-.775-1.232-1.372-.299-.597-.448-1.302-.448-2.114 0-.803.149-1.503.448-2.1.299-.597.709-1.055 1.232-1.372a3.46 3.46 0 0 1 1.806-.476zm.49 1.4c-.709 0-1.279.229-1.708.686-.42.448-.63 1.069-.63 1.862 0 .793.21 1.419.63 1.876.429.448.999.672 1.708.672.448 0 .849-.103 1.204-.308.355-.215.635-.513.84-.896.205-.383.308-.831.308-1.344 0-.504-.103-.947-.308-1.33a2.162 2.162 0 0 0-.84-.896 2.277 2.277 0 0 0-1.204-.322zm9.881 5.026V457H299c-.821 0-1.446-.196-1.876-.588-.42-.401-.63-1.064-.63-1.988v-3.78h-1.106v-1.358h1.106v-1.918h1.61v1.918h1.862v1.358h-1.862v3.808c0 .439.08.742.238.91.168.168.458.252.868.252h.77zm3.875-8.806-.21 7.098h-1.344l-.21-7.098h1.764zm.042 8.428V457h-1.82v-1.764h1.82zm13.267-8.12-3.29 6.286V457h-1.61v-3.598l-3.304-6.286h1.848l2.268 4.578 2.268-4.578h1.82zm4.86 2.072c.747 0 1.419.159 2.016.476a3.419 3.419 0 0 1 1.4 1.372c.336.597.504 1.297.504 2.1 0 .812-.168 1.517-.504 2.114a3.419 3.419 0 0 1-1.4 1.372c-.597.317-1.269.476-2.016.476-.747 0-1.419-.159-2.016-.476a3.53 3.53 0 0 1-1.4-1.372c-.336-.607-.504-1.311-.504-2.114 0-.803.168-1.503.504-2.1a3.53 3.53 0 0 1 1.4-1.372c.597-.317 1.269-.476 2.016-.476zm0 1.386a2.34 2.34 0 0 0-1.134.28c-.345.187-.625.476-.84.868-.205.383-.308.854-.308 1.414 0 .569.103 1.045.308 1.428.215.383.495.667.84.854.345.187.723.28 1.134.28a2.34 2.34 0 0 0 1.134-.28 2.03 2.03 0 0 0 .826-.854c.215-.383.322-.859.322-1.428 0-.56-.107-1.031-.322-1.414a2.015 2.015 0 0 0-.826-.868 2.34 2.34 0 0 0-1.134-.28zm12.707-1.288V457h-1.61v-1.68a2.522 2.522 0 0 1-1.022 1.33c-.486.308-1.05.462-1.694.462-.896 0-1.615-.289-2.156-.868-.542-.579-.812-1.405-.812-2.478v-4.48h1.596v4.312c0 .7.177 1.241.532 1.624.354.373.84.56 1.456.56.634 0 1.143-.205 1.526-.616.382-.411.574-1.008.574-1.792v-4.088h1.61zm3.647 1.512a2.925 2.925 0 0 1 1.12-1.19c.485-.299 1.045-.448 1.68-.448v1.736h-.476c-.7 0-1.265.173-1.694.518-.42.336-.63.896-.63 1.68V457h-1.596v-7.714h1.596v1.512zm9.153 2.366V457h-1.596v-9.884h3.36c1.139 0 1.993.271 2.562.812.579.541.868 1.283.868 2.226 0 .933-.294 1.671-.882 2.212-.588.532-1.437.798-2.548.798h-1.764zm1.596-1.302c1.316 0 1.974-.569 1.974-1.708 0-.56-.159-.985-.476-1.274-.308-.299-.807-.448-1.498-.448h-1.596v3.43h1.596zm8.232-2.674c.7 0 1.297.173 1.792.518.494.345.844.803 1.05 1.372v-1.792h1.596V457h-1.596v-1.792a2.795 2.795 0 0 1-1.05 1.372c-.495.345-1.092.518-1.792.518a3.46 3.46 0 0 1-1.806-.476c-.523-.317-.934-.775-1.232-1.372-.299-.597-.448-1.302-.448-2.114 0-.803.149-1.503.448-2.1.298-.597.709-1.055 1.232-1.372a3.46 3.46 0 0 1 1.806-.476zm.49 1.4c-.71 0-1.279.229-1.708.686-.42.448-.63 1.069-.63 1.862 0 .793.21 1.419.63 1.876.429.448.998.672 1.708.672.448 0 .849-.103 1.204-.308.354-.215.634-.513.84-.896.205-.383.308-.831.308-1.344 0-.504-.103-.947-.308-1.33a2.175 2.175 0 0 0-.84-.896 2.277 2.277 0 0 0-1.204-.322zm6.913-1.302 2.31 5.67 2.142-5.67h1.778l-4.662 11.382h-1.778l1.666-3.85-3.248-7.532h1.792zm17.065-.126c.915 0 1.643.289 2.184.868.551.579.826 1.405.826 2.478V457h-1.596v-4.326c0-.672-.168-1.19-.504-1.554-.336-.373-.798-.56-1.386-.56-.625 0-1.124.201-1.498.602-.364.392-.546.971-.546 1.736V457h-1.596v-4.326c0-.672-.168-1.19-.504-1.554-.336-.373-.798-.56-1.386-.56-.625 0-1.124.201-1.498.602-.364.392-.546.971-.546 1.736V457h-1.596v-7.714h1.596v1.61c.196-.56.523-.989.98-1.288.458-.299.994-.448 1.61-.448.644 0 1.2.159 1.666.476.476.317.822.775 1.036 1.372a2.79 2.79 0 0 1 1.078-1.358 2.98 2.98 0 0 1 1.68-.49zm12.182 3.612c0 .261-.019.49-.056.686h-5.936c.028.793.247 1.381.658 1.764.41.383.919.574 1.526.574.532 0 .98-.135 1.344-.406a1.67 1.67 0 0 0 .686-1.078h1.708a3.334 3.334 0 0 1-.644 1.442c-.327.42-.752.751-1.274.994a4.253 4.253 0 0 1-1.75.35c-.747 0-1.41-.159-1.988-.476a3.39 3.39 0 0 1-1.344-1.372c-.327-.597-.49-1.302-.49-2.114 0-.803.163-1.503.49-2.1a3.39 3.39 0 0 1 1.344-1.372c.578-.317 1.241-.476 1.988-.476.756 0 1.414.159 1.974.476a3.15 3.15 0 0 1 1.302 1.288c.308.541.462 1.148.462 1.82zm-1.61-.042c.018-.504-.07-.924-.266-1.26a1.71 1.71 0 0 0-.784-.756 2.323 2.323 0 0 0-1.078-.252c-.626 0-1.148.191-1.568.574-.42.383-.649.947-.686 1.694h4.382zm7.603-3.57c.896 0 1.614.289 2.156.868.541.579.812 1.405.812 2.478V457h-1.596v-4.326c0-.691-.178-1.223-.532-1.596-.355-.383-.84-.574-1.456-.574-.635 0-1.144.205-1.526.616-.383.401-.574.994-.574 1.778V457h-1.596v-7.714h1.596v1.694a2.58 2.58 0 0 1 1.036-1.344c.485-.317 1.045-.476 1.68-.476zm8.852 6.454V457h-.98c-.821 0-1.446-.196-1.876-.588-.42-.401-.63-1.064-.63-1.988v-3.78h-1.106v-1.358h1.106v-1.918h1.61v1.918h1.862v1.358h-1.862v3.808c0 .439.08.742.238.91.168.168.458.252.868.252h.77zm4.833-8.568c0-.271.093-.495.28-.672.186-.177.434-.266.742-.266s.555.089.742.266a.866.866 0 0 1 .294.672c0 .271-.098.49-.294.658-.187.168-.434.252-.742.252s-.556-.084-.742-.252a.842.842 0 0 1-.28-.658zm1.82 2.24V457h-1.596v-7.714h1.596zm4.605-.098c.905 0 1.629.233 2.17.7.551.457.887 1.073 1.008 1.848h-1.512c-.065-.42-.247-.756-.546-1.008-.289-.261-.677-.392-1.162-.392-.401 0-.714.098-.938.294-.215.187-.322.443-.322.77 0 .243.079.439.238.588.159.149.355.266.588.35.243.084.583.177 1.022.28a9.865 9.865 0 0 1 1.4.406c.364.14.672.364.924.672.261.299.392.709.392 1.232 0 .644-.247 1.167-.742 1.568-.485.401-1.143.602-1.974.602-.961 0-1.741-.224-2.338-.672-.588-.448-.943-1.073-1.064-1.876h1.554c.047.42.233.761.56 1.022.327.261.756.392 1.288.392.383 0 .681-.098.896-.294a1 1 0 0 0 .336-.77c0-.271-.084-.485-.252-.644a1.668 1.668 0 0 0-.63-.364 7.753 7.753 0 0 0-1.036-.28 11.932 11.932 0 0 1-1.372-.392 2.222 2.222 0 0 1-.896-.63c-.243-.299-.364-.7-.364-1.204 0-.653.243-1.181.728-1.582.495-.411 1.176-.616 2.044-.616zm10.958 0c.905 0 1.628.233 2.17.7.55.457.886 1.073 1.008 1.848h-1.512c-.066-.42-.248-.756-.546-1.008-.29-.261-.677-.392-1.162-.392-.402 0-.714.098-.938.294-.215.187-.322.443-.322.77 0 .243.079.439.238.588.158.149.354.266.588.35.242.084.583.177 1.022.28a9.905 9.905 0 0 1 1.4.406c.364.14.672.364.924.672.261.299.392.709.392 1.232 0 .644-.248 1.167-.742 1.568-.486.401-1.144.602-1.974.602-.962 0-1.741-.224-2.338-.672-.588-.448-.943-1.073-1.064-1.876h1.554c.046.42.233.761.56 1.022.326.261.756.392 1.288.392.382 0 .681-.098.896-.294a1 1 0 0 0 .336-.77c0-.271-.084-.485-.252-.644a1.668 1.668 0 0 0-.63-.364 7.796 7.796 0 0 0-1.036-.28 11.873 11.873 0 0 1-1.372-.392 2.216 2.216 0 0 1-.896-.63c-.243-.299-.364-.7-.364-1.204 0-.653.242-1.181.728-1.582.494-.411 1.176-.616 2.044-.616zm12.114.098V457h-1.61v-1.68a2.522 2.522 0 0 1-1.022 1.33c-.485.308-1.05.462-1.694.462-.896 0-1.615-.289-2.156-.868-.541-.579-.812-1.405-.812-2.478v-4.48h1.596v4.312c0 .7.177 1.241.532 1.624.355.373.84.56 1.456.56.635 0 1.143-.205 1.526-.616.383-.411.574-1.008.574-1.792v-4.088h1.61zm5.482-.098c.998 0 1.824.266 2.478.798.653.523 1.059 1.237 1.218 2.142h-1.694c-.094-.485-.322-.863-.686-1.134-.355-.28-.803-.42-1.344-.42-.616 0-1.13.219-1.54.658-.411.429-.616 1.064-.616 1.904 0 .84.205 1.479.616 1.918.41.439.924.658 1.54.658.541 0 .989-.14 1.344-.42.364-.28.592-.663.686-1.148h1.694c-.159.905-.565 1.624-1.218 2.156-.654.532-1.48.798-2.478.798-.747 0-1.41-.159-1.988-.476a3.39 3.39 0 0 1-1.344-1.372c-.327-.597-.49-1.302-.49-2.114 0-.803.163-1.503.49-2.1a3.39 3.39 0 0 1 1.344-1.372c.578-.317 1.241-.476 1.988-.476zm8.807 0c.999 0 1.825.266 2.478.798.654.523 1.06 1.237 1.218 2.142h-1.694c-.093-.485-.322-.863-.686-1.134-.354-.28-.802-.42-1.344-.42-.616 0-1.129.219-1.54.658-.41.429-.616 1.064-.616 1.904 0 .84.206 1.479.616 1.918.411.439.924.658 1.54.658.542 0 .99-.14 1.344-.42.364-.28.593-.663.686-1.148h1.694c-.158.905-.564 1.624-1.218 2.156-.653.532-1.479.798-2.478.798-.746 0-1.409-.159-1.988-.476a3.403 3.403 0 0 1-1.344-1.372c-.326-.597-.49-1.302-.49-2.114 0-.803.164-1.503.49-2.1a3.403 3.403 0 0 1 1.344-1.372c.579-.317 1.242-.476 1.988-.476zm12.546 3.584c0 .261-.018.49-.056.686h-5.936c.028.793.248 1.381.658 1.764.411.383.92.574 1.526.574.532 0 .98-.135 1.344-.406.374-.271.602-.63.686-1.078h1.708a3.31 3.31 0 0 1-.644 1.442c-.326.42-.751.751-1.274.994a4.25 4.25 0 0 1-1.75.35c-.746 0-1.409-.159-1.988-.476a3.403 3.403 0 0 1-1.344-1.372c-.326-.597-.49-1.302-.49-2.114 0-.803.164-1.503.49-2.1a3.403 3.403 0 0 1 1.344-1.372c.579-.317 1.242-.476 1.988-.476.756 0 1.414.159 1.974.476a3.14 3.14 0 0 1 1.302 1.288c.308.541.462 1.148.462 1.82zm-1.61-.042c.019-.504-.07-.924-.266-1.26a1.706 1.706 0 0 0-.784-.756 2.32 2.32 0 0 0-1.078-.252c-.625 0-1.148.191-1.568.574-.42.383-.648.947-.686 1.694h4.382zm5.825-3.542c.906 0 1.629.233 2.17.7.551.457.887 1.073 1.008 1.848H475.9c-.065-.42-.247-.756-.546-1.008-.289-.261-.676-.392-1.162-.392-.401 0-.714.098-.938.294-.214.187-.322.443-.322.77 0 .243.08.439.238.588.159.149.355.266.588.35.243.084.584.177 1.022.28a9.826 9.826 0 0 1 1.4.406c.364.14.672.364.924.672.262.299.392.709.392 1.232 0 .644-.247 1.167-.742 1.568-.485.401-1.143.602-1.974.602-.961 0-1.74-.224-2.338-.672-.588-.448-.942-1.073-1.064-1.876h1.554c.047.42.234.761.56 1.022.327.261.756.392 1.288.392.383 0 .682-.098.896-.294a1 1 0 0 0 .336-.77c0-.271-.084-.485-.252-.644a1.668 1.668 0 0 0-.63-.364 7.753 7.753 0 0 0-1.036-.28 11.932 11.932 0 0 1-1.372-.392 2.222 2.222 0 0 1-.896-.63c-.242-.299-.364-.7-.364-1.204 0-.653.243-1.181.728-1.582.495-.411 1.176-.616 2.044-.616zm8.601-1.498c-.625-.028-1.064.075-1.316.308-.252.224-.378.611-.378 1.162v.126h1.694v1.372h-1.694V457h-1.61v-6.342h-1.05v-1.372h1.05v-.252c0-.943.275-1.647.826-2.114.551-.476 1.377-.686 2.478-.63v1.4zm8.535 1.596V457h-1.61v-1.68a2.522 2.522 0 0 1-1.022 1.33c-.486.308-1.05.462-1.694.462-.896 0-1.615-.289-2.156-.868-.542-.579-.812-1.405-.812-2.478v-4.48h1.596v4.312c0 .7.177 1.241.532 1.624.354.373.84.56 1.456.56.634 0 1.143-.205 1.526-.616.382-.411.574-1.008.574-1.792v-4.088h1.61zm3.647-2.646V457h-1.596v-10.36h1.596zm3.668 0V457h-1.596v-10.36h1.596zm2.981 2.646 2.31 5.67 2.142-5.67h1.778l-4.662 11.382h-1.778l1.666-3.85-3.248-7.532h1.792zm8.679 5.95V457h-1.806v-1.764h1.806z" fill="#080915"/><g clip-path="url(#j)"><path d="M238 440c-6.632 0-12 5.367-12 12 0 6.632 5.367 12 12 12 6.632 0 12-5.367 12-12 0-6.632-5.367-12-12-12zm6.352 8.722-7.688 7.688a.8.8 0 0 1-1.131 0l-3.885-3.886a.799.799 0 1 1 1.131-1.131l3.32 3.319 7.122-7.122a.8.8 0 0 1 1.131 1.132z" fill="#00AE1C"/></g><defs><linearGradient id="b" x1="-920.5" y1="-290" x2="336.597" y2="350.868" gradientUnits="userSpaceOnUse"><stop stop-color="#fff"/><stop offset=".99" stop-color="#14101D"/></linearGradient><linearGradient id="e" x1="-496" y1="-248.5" x2="482.544" y2="136.612" gradientUnits="userSpaceOnUse"><stop stop-color="#fff"/><stop offset="1" stop-color="#14101D"/></linearGradient><linearGradient id="f" x1="409.992" y1="97.352" x2="421.466" y2="157.778" gradientUnits="userSpaceOnUse"><stop offset=".009" stop-color="#DEF9FA"/><stop offset=".172" stop-color="#BEF3F5"/><stop offset=".42" stop-color="#9DEDF0"/><stop offset=".551" stop-color="#7DE7EB"/><stop offset=".715" stop-color="#5CE1E6"/><stop offset="1" stop-color="#33BBCF"/></linearGradient><linearGradient id="g" x1="371.133" y1="154.352" x2="375.593" y2="216.638" gradientUnits="userSpaceOnUse"><stop offset=".009" stop-color="#DEF9FA"/><stop offset=".172" stop-color="#BEF3F5"/><stop offset=".42" stop-color="#9DEDF0"/><stop offset=".551" stop-color="#7DE7EB"/><stop offset=".715" stop-color="#5CE1E6"/><stop offset="1" stop-color="#33BBCF"/></linearGradient><linearGradient id="h" x1="406.537" y1="116.93" x2="411.959" y2="152.141" gradientUnits="userSpaceOnUse"><stop offset=".009" stop-color="#DEF9FA"/><stop offset=".172" stop-color="#BEF3F5"/><stop offset=".42" stop-color="#9DEDF0"/><stop offset=".551" stop-color="#7DE7EB"/><stop offset=".715" stop-color="#5CE1E6"/><stop offset="1" stop-color="#33BBCF"/></linearGradient><filter id="a" x="-30.402" y="146.598" width="395.804" height="340.804" filterUnits="userSpaceOnUse" color-interpolation-filters="sRGB"><feFlood flood-opacity="0" result="BackgroundImageFix"/><feGaussianBlur in="BackgroundImageFix" stdDeviation="15.201"/><feComposite in2="SourceAlpha" operator="in" result="effect1_backgroundBlur_165702_97"/><feBlend in="SourceGraphic" in2="effect1_backgroundBlur_165702_97" result="shape"/><feColorMatrix in="SourceAlpha" values="0 0 0 0 0 0 0 0 0 0 0 0 0 0 0 0 0 0 127 0" result="hardAlpha"/><feOffset dx="-.243" dy="-.243"/><feGaussianBlur stdDeviation=".182"/><feComposite in2="hardAlpha" operator="arithmetic" k2="-1" k3="1"/><feColorMatrix values="0 0 0 0 0 0 0 0 0 0 0 0 0 0 0 0 0 0 0.36 0"/><feBlend in2="shape" result="effect2_innerShadow_165702_97"/></filter><filter id="d" x="199" y="0" width="287" height="276" filterUnits="userSpaceOnUse" color-interpolation-filters="sRGB"><feFlood flood-opacity="0" result="BackgroundImageFix"/><feColorMatrix in="SourceAlpha" values="0 0 0 0 0 0 0 0 0 0 0 0 0 0 0 0 0 0 127 0" result="hardAlpha"/><feOffset dx="4" dy="6"/><feGaussianBlur stdDeviation="15"/><feComposite in2="hardAlpha" operator="out"/><feColorMatrix values="0 0 0 0 0.0753993 0 0 0 0 0.14181 0 0 0 0 0.179167 0 0 0 0.25 0"/><feBlend in2="BackgroundImageFix" result="effect1_dropShadow_165702_97"/><feBlend in="SourceGraphic" in2="effect1_dropShadow_165702_97" result="shape"/></filter><filter id="i" x="176" y="405" width="384" height="114" filterUnits="userSpaceOnUse" color-interpolation-filters="sRGB"><feFlood flood-opacity="0" result="BackgroundImageFix"/><feColorMatrix in="SourceAlpha" values="0 0 0 0 0 0 0 0 0 0 0 0 0 0 0 0 0 0 127 0" result="hardAlpha"/><feOffset dy="10"/><feGaussianBlur stdDeviation="15"/><feComposite in2="hardAlpha" operator="out"/><feColorMatrix values="0 0 0 0 0.156719 0 0 0 0 0.187018 0 0 0 0 0.245833 0 0 0 0.25 0"/><feBlend in2="BackgroundImageFix" result="effect1_dropShadow_165702_97"/><feBlend in="SourceGraphic" in2="effect1_dropShadow_165702_97" result="shape"/></filter><clipPath id="c"><path fill="#fff" transform="translate(20 259)" d="M0 0h40v40H0z"/></clipPath><clipPath id="j"><path fill="#fff" transform="translate(226 440)" d="M0 0h24v24H0z"/></clipPath></defs></svg>